<svg xmlns="http://www.w3.org/2000/svg" viewBox="-440 -440 3947 3299" font-family="Segoe UI, Helvetica Neue, Arial, sans-serif" role="img" aria-label="Conceptual model: classes and properties in the Ninja RDF graph"><rect x="-440" y="-440" width="3947" height="3299" fill="#fbfaf7"/><defs><marker id="arrow-block-000000" viewBox="0 0 10 10" refX="9" refY="5" markerWidth="11" markerHeight="11" orient="auto-start-reverse"><path d="M0,0 L10,5 L0,10 z" fill="#000000"/></marker><marker id="arrow-open-2d8a3e" viewBox="0 0 10 10" refX="9" refY="5" markerWidth="11" markerHeight="11" orient="auto-start-reverse"><path d="M1,1 L9,5 L1,9" fill="none" stroke="#2d8a3e" stroke-width="1.6"/></marker><marker id="arrow-block-1a56db" viewBox="0 0 10 10" refX="9" refY="5" markerWidth="11" markerHeight="11" orient="auto-start-reverse"><path d="M0,0 L10,5 L0,10 z" fill="#1a56db"/></marker><marker id="arrow-block-6c8ebf" viewBox="0 0 10 10" refX="9" refY="5" markerWidth="11" markerHeight="11" orient="auto-start-reverse"><path d="M0,0 L10,5 L0,10 z" fill="#6c8ebf"/></marker></defs><line x1="3029" y1="2371" x2="2596" y2="2035" stroke="#000000" stroke-width="1.5" marker-end="url(#arrow-block-000000)"/><rect x="2712" y="2188" width="200" height="30" fill="#ffffff" fill-opacity="0.92"/><text x="2812" y="2209" text-anchor="middle" font-size="20" fill="#000000" font-family="Segoe UI, Helvetica Neue, Arial, sans-serif">rdfs:subClassOf</text><line x1="2940" y1="1620" x2="2612" y2="1845" stroke="#000000" stroke-width="1.5" marker-end="url(#arrow-block-000000)"/><rect x="2676" y="1718" width="200" height="30" fill="#ffffff" fill-opacity="0.92"/><text x="2776" y="1739" text-anchor="middle" font-size="20" fill="#000000" font-family="Segoe UI, Helvetica Neue, Arial, sans-serif">rdfs:subClassOf</text><line x1="1682" y1="377" x2="1406" y2="46" stroke="#2d8a3e" stroke-width="1.5" marker-end="url(#arrow-open-2d8a3e)"/><rect x="1468" y="196" width="152" height="30" fill="#ffffff" fill-opacity="0.92"/><text x="1544" y="218" text-anchor="middle" font-size="20" fill="#1f5c2b" font-family="Segoe UI, Helvetica Neue, Arial, sans-serif">schema:name</text><line x1="1815" y1="377" x2="2002" y2="46" stroke="#2d8a3e" stroke-width="1.5" marker-end="url(#arrow-open-2d8a3e)"/><rect x="1808" y="196" width="200" height="30" fill="#ffffff" fill-opacity="0.92"/><text x="1908" y="218" text-anchor="middle" font-size="20" fill="#1f5c2b" font-family="Segoe UI, Helvetica Neue, Arial, sans-serif">dct:description</text><line x1="2919" y1="625" x2="2526" y2="402" stroke="#2d8a3e" stroke-width="1.5" marker-end="url(#arrow-open-2d8a3e)"/><rect x="2647" y="498" width="152" height="30" fill="#ffffff" fill-opacity="0.92"/><text x="2723" y="520" text-anchor="middle" font-size="20" fill="#1f5c2b" font-family="Segoe UI, Helvetica Neue, Arial, sans-serif">schema:name</text><line x1="3016" y1="625" x2="2836" y2="385" stroke="#2d8a3e" stroke-width="1.5" marker-end="url(#arrow-open-2d8a3e)"/><rect x="2868" y="490" width="116" height="30" fill="#ffffff" fill-opacity="0.92"/><text x="2926" y="511" text-anchor="middle" font-size="20" fill="#1f5c2b" font-family="Segoe UI, Helvetica Neue, Arial, sans-serif">dct:date</text><line x1="3085" y1="625" x2="3080" y2="417" stroke="#2d8a3e" stroke-width="1.5" marker-end="url(#arrow-open-2d8a3e)"/><rect x="2982" y="506" width="200" height="30" fill="#ffffff" fill-opacity="0.92"/><text x="3082" y="527" text-anchor="middle" font-size="20" fill="#1f5c2b" font-family="Segoe UI, Helvetica Neue, Arial, sans-serif">dct:description</text><line x1="2807" y1="1084" x2="3080" y2="1026" stroke="#2d8a3e" stroke-width="1.5" marker-end="url(#arrow-open-2d8a3e)"/><rect x="2868" y="1040" width="152" height="30" fill="#ffffff" fill-opacity="0.92"/><text x="2944" y="1062" text-anchor="middle" font-size="20" fill="#1f5c2b" font-family="Segoe UI, Helvetica Neue, Arial, sans-serif">schema:name</text><line x1="2807" y1="1192" x2="3287" y2="1306" stroke="#2d8a3e" stroke-width="1.5" marker-end="url(#arrow-open-2d8a3e)"/><rect x="2947" y="1234" width="200" height="30" fill="#ffffff" fill-opacity="0.92"/><text x="3047" y="1256" text-anchor="middle" font-size="20" fill="#1f5c2b" font-family="Segoe UI, Helvetica Neue, Arial, sans-serif">dct:description</text><line x1="2713" y1="1889" x2="2958" y2="1836" stroke="#2d8a3e" stroke-width="1.5" marker-end="url(#arrow-open-2d8a3e)"/><rect x="2760" y="1848" width="152" height="30" fill="#ffffff" fill-opacity="0.92"/><text x="2836" y="1869" text-anchor="middle" font-size="20" fill="#1f5c2b" font-family="Segoe UI, Helvetica Neue, Arial, sans-serif">schema:name</text><line x1="2713" y1="2029" x2="2849" y2="2080" stroke="#2d8a3e" stroke-width="1.5" marker-end="url(#arrow-open-2d8a3e)"/><rect x="2723" y="2040" width="116" height="30" fill="#ffffff" fill-opacity="0.92"/><text x="2781" y="2061" text-anchor="middle" font-size="20" fill="#1f5c2b" font-family="Segoe UI, Helvetica Neue, Arial, sans-serif">dct:date</text><line x1="2532" y1="2035" x2="2720" y2="2338" stroke="#2d8a3e" stroke-width="1.5" marker-end="url(#arrow-open-2d8a3e)"/><rect x="2526" y="2172" width="200" height="30" fill="#ffffff" fill-opacity="0.92"/><text x="2626" y="2193" text-anchor="middle" font-size="20" fill="#1f5c2b" font-family="Segoe UI, Helvetica Neue, Arial, sans-serif">dct:description</text><line x1="2136" y1="2341" x2="2433" y2="2561" stroke="#2d8a3e" stroke-width="1.5" marker-end="url(#arrow-open-2d8a3e)"/><rect x="2208" y="2436" width="152" height="30" fill="#ffffff" fill-opacity="0.92"/><text x="2284" y="2457" text-anchor="middle" font-size="20" fill="#1f5c2b" font-family="Segoe UI, Helvetica Neue, Arial, sans-serif">schema:name</text><line x1="2043" y1="2341" x2="2175" y2="2704" stroke="#2d8a3e" stroke-width="1.5" marker-end="url(#arrow-open-2d8a3e)"/><rect x="1985" y="2508" width="248" height="30" fill="#ffffff" fill-opacity="0.92"/><text x="2109" y="2529" text-anchor="middle" font-size="20" fill="#1f5c2b" font-family="Segoe UI, Helvetica Neue, Arial, sans-serif">schema:foundingDate</text><line x1="1985" y1="2341" x2="1880" y2="2779" stroke="#2d8a3e" stroke-width="1.5" marker-end="url(#arrow-open-2d8a3e)"/><rect x="1833" y="2545" width="200" height="30" fill="#ffffff" fill-opacity="0.92"/><text x="1933" y="2566" text-anchor="middle" font-size="20" fill="#1f5c2b" font-family="Segoe UI, Helvetica Neue, Arial, sans-serif">dct:description</text><line x1="1257" y1="2240" x2="1513" y2="2779" stroke="#2d8a3e" stroke-width="1.5" marker-end="url(#arrow-open-2d8a3e)"/><rect x="1309" y="2494" width="152" height="30" fill="#ffffff" fill-opacity="0.92"/><text x="1385" y="2516" text-anchor="middle" font-size="20" fill="#1f5c2b" font-family="Segoe UI, Helvetica Neue, Arial, sans-serif">schema:name</text><line x1="1228" y1="2240" x2="1312" y2="2737" stroke="#2d8a3e" stroke-width="1.5" marker-end="url(#arrow-open-2d8a3e)"/><rect x="1146" y="2474" width="248" height="30" fill="#ffffff" fill-opacity="0.92"/><text x="1270" y="2495" text-anchor="middle" font-size="20" fill="#1f5c2b" font-family="Segoe UI, Helvetica Neue, Arial, sans-serif">crm:P45_consists_of</text><line x1="1195" y1="2240" x2="1120" y2="2664" stroke="#2d8a3e" stroke-width="1.5" marker-end="url(#arrow-open-2d8a3e)"/><rect x="1022" y="2437" width="272" height="30" fill="#ffffff" fill-opacity="0.92"/><text x="1158" y="2458" text-anchor="middle" font-size="20" fill="#1f5c2b" font-family="Segoe UI, Helvetica Neue, Arial, sans-serif">crm:P43_has_dimension</text><line x1="1151" y1="2240" x2="946" y2="2561" stroke="#2d8a3e" stroke-width="1.5" marker-end="url(#arrow-open-2d8a3e)"/><rect x="949" y="2386" width="200" height="30" fill="#ffffff" fill-opacity="0.92"/><text x="1049" y="2407" text-anchor="middle" font-size="20" fill="#1f5c2b" font-family="Segoe UI, Helvetica Neue, Arial, sans-serif">dct:description</text><line x1="954" y1="1776" x2="676" y2="2338" stroke="#2d8a3e" stroke-width="1.5" marker-end="url(#arrow-open-2d8a3e)"/><rect x="739" y="2042" width="152" height="30" fill="#ffffff" fill-opacity="0.92"/><text x="815" y="2063" text-anchor="middle" font-size="20" fill="#1f5c2b" font-family="Segoe UI, Helvetica Neue, Arial, sans-serif">schema:name</text><line x1="870" y1="1776" x2="491" y2="2050" stroke="#2d8a3e" stroke-width="1.5" marker-end="url(#arrow-open-2d8a3e)"/><rect x="593" y="1898" width="176" height="30" fill="#ffffff" fill-opacity="0.92"/><text x="681" y="1919" text-anchor="middle" font-size="20" fill="#1f5c2b" font-family="Segoe UI, Helvetica Neue, Arial, sans-serif">schema:author</text><line x1="761" y1="1730" x2="442" y2="1795" stroke="#2d8a3e" stroke-width="1.5" marker-end="url(#arrow-open-2d8a3e)"/><rect x="502" y="1747" width="200" height="30" fill="#ffffff" fill-opacity="0.92"/><text x="602" y="1769" text-anchor="middle" font-size="20" fill="#1f5c2b" font-family="Segoe UI, Helvetica Neue, Arial, sans-serif">dct:description</text><line x1="858" y1="1299" x2="381" y2="1444" stroke="#2d8a3e" stroke-width="1.5" marker-end="url(#arrow-open-2d8a3e)"/><rect x="543" y="1356" width="152" height="30" fill="#ffffff" fill-opacity="0.92"/><text x="619" y="1378" text-anchor="middle" font-size="20" fill="#1f5c2b" font-family="Segoe UI, Helvetica Neue, Arial, sans-serif">schema:name</text><line x1="858" y1="1236" x2="387" y2="1256" stroke="#2d8a3e" stroke-width="1.5" marker-end="url(#arrow-open-2d8a3e)"/><rect x="552" y="1231" width="140" height="30" fill="#ffffff" fill-opacity="0.92"/><text x="622" y="1252" text-anchor="middle" font-size="20" fill="#1f5c2b" font-family="Segoe UI, Helvetica Neue, Arial, sans-serif">dct:issued</text><line x1="858" y1="1171" x2="424" y2="1071" stroke="#2d8a3e" stroke-width="1.5" marker-end="url(#arrow-open-2d8a3e)"/><rect x="559" y="1106" width="164" height="30" fill="#ffffff" fill-opacity="0.92"/><text x="641" y="1127" text-anchor="middle" font-size="20" fill="#1f5c2b" font-family="Segoe UI, Helvetica Neue, Arial, sans-serif">schema:genre</text><line x1="922" y1="1131" x2="449" y2="875" stroke="#2d8a3e" stroke-width="1.5" marker-end="url(#arrow-open-2d8a3e)"/><rect x="579" y="988" width="212" height="30" fill="#ffffff" fill-opacity="0.92"/><text x="685" y="1009" text-anchor="middle" font-size="20" fill="#1f5c2b" font-family="Segoe UI, Helvetica Neue, Arial, sans-serif">schema:publisher</text><line x1="881" y1="639" x2="666" y2="575" stroke="#2d8a3e" stroke-width="1.5" marker-end="url(#arrow-open-2d8a3e)"/><rect x="698" y="592" width="152" height="30" fill="#ffffff" fill-opacity="0.92"/><text x="774" y="613" text-anchor="middle" font-size="20" fill="#1f5c2b" font-family="Segoe UI, Helvetica Neue, Arial, sans-serif">schema:name</text><line x1="1041" y1="616" x2="812" y2="342" stroke="#2d8a3e" stroke-width="1.5" marker-end="url(#arrow-open-2d8a3e)"/><rect x="869" y="464" width="116" height="30" fill="#ffffff" fill-opacity="0.92"/><text x="927" y="485" text-anchor="middle" font-size="20" fill="#1f5c2b" font-family="Segoe UI, Helvetica Neue, Arial, sans-serif">dct:date</text><line x1="1110" y1="616" x2="1058" y2="165" stroke="#2d8a3e" stroke-width="1.5" marker-end="url(#arrow-open-2d8a3e)"/><rect x="984" y="376" width="200" height="30" fill="#ffffff" fill-opacity="0.92"/><text x="1084" y="397" text-anchor="middle" font-size="20" fill="#1f5c2b" font-family="Segoe UI, Helvetica Neue, Arial, sans-serif">dct:description</text><line x1="2001" y1="517" x2="2847" y2="675" stroke="#1a56db" stroke-width="1.5" marker-end="url(#arrow-block-1a56db)"/><rect x="2149" y="580" width="550" height="33" fill="#ffffff" fill-opacity="0.92"/><text x="2424" y="603" text-anchor="middle" font-size="22" fill="#1a3f8c" font-family="Segoe UI, Helvetica Neue, Arial, sans-serif">crm:P107i_is_current_or_former_member_of</text><line x1="1876" y1="567" x2="2452" y2="1040" stroke="#1a56db" stroke-width="1.5" marker-end="url(#arrow-block-1a56db)"/><rect x="2001" y="787" width="326" height="33" fill="#ffffff" fill-opacity="0.92"/><text x="2164" y="811" text-anchor="middle" font-size="22" fill="#1a3f8c" font-family="Segoe UI, Helvetica Neue, Arial, sans-serif">ninja:embodiesArchetype</text><line x1="1807" y1="567" x2="2427" y2="1845" stroke="#1a56db" stroke-width="1.5" marker-end="url(#arrow-block-1a56db)"/><rect x="1981" y="1190" width="273" height="33" fill="#ffffff" fill-opacity="0.92"/><text x="2117" y="1213" text-anchor="middle" font-size="22" fill="#1a3f8c" font-family="Segoe UI, Helvetica Neue, Arial, sans-serif">schema:homeLocation</text><line x1="1876" y1="567" x2="2452" y2="1040" stroke="#1a56db" stroke-width="1.5" marker-end="url(#arrow-block-1a56db)"/><rect x="2041" y="787" width="246" height="33" fill="#ffffff" fill-opacity="0.92"/><text x="2164" y="811" text-anchor="middle" font-size="22" fill="#1a3f8c" font-family="Segoe UI, Helvetica Neue, Arial, sans-serif">schema:knowsAbout</text><line x1="2968" y1="815" x2="2686" y2="1040" stroke="#1a56db" stroke-width="1.5" marker-end="url(#arrow-block-1a56db)"/><rect x="2704" y="911" width="246" height="33" fill="#ffffff" fill-opacity="0.92"/><text x="2827" y="935" text-anchor="middle" font-size="22" fill="#1a3f8c" font-family="Segoe UI, Helvetica Neue, Arial, sans-serif">schema:knowsAbout</text><line x1="3039" y1="815" x2="2521" y2="1845" stroke="#1a56db" stroke-width="1.5" marker-end="url(#arrow-block-1a56db)"/><rect x="2617" y="1314" width="326" height="33" fill="#ffffff" fill-opacity="0.92"/><text x="2780" y="1337" text-anchor="middle" font-size="22" fill="#1a3f8c" font-family="Segoe UI, Helvetica Neue, Arial, sans-serif">schema:foundingLocation</text><line x1="1241" y1="1597" x2="2327" y2="1219" stroke="#1a56db" stroke-width="1.5" marker-end="url(#arrow-block-1a56db)"/><rect x="1700" y="1392" width="167" height="33" fill="#ffffff" fill-opacity="0.92"/><text x="1784" y="1415" text-anchor="middle" font-size="22" fill="#1a3f8c" font-family="Segoe UI, Helvetica Neue, Arial, sans-serif">dct:subject</text><line x1="1207" y1="1586" x2="2881" y2="815" stroke="#1a56db" stroke-width="1.5" marker-end="url(#arrow-block-1a56db)"/><rect x="1861" y="1184" width="365" height="33" fill="#ffffff" fill-opacity="0.92"/><text x="2044" y="1208" text-anchor="middle" font-size="22" fill="#1a3f8c" font-family="Segoe UI, Helvetica Neue, Arial, sans-serif">ninja:preservesKnowledgeOf</text><line x1="2152" y1="2151" x2="2329" y2="2035" stroke="#1a56db" stroke-width="1.5" marker-end="url(#arrow-block-1a56db)"/><rect x="2078" y="2076" width="326" height="33" fill="#ffffff" fill-opacity="0.92"/><text x="2240" y="2100" text-anchor="middle" font-size="22" fill="#1a3f8c" font-family="Segoe UI, Helvetica Neue, Arial, sans-serif">schema:containedInPlace</text><line x1="2056" y1="2151" x2="2519" y2="1230" stroke="#1a56db" stroke-width="1.5" marker-end="url(#arrow-block-1a56db)"/><rect x="2204" y="1674" width="167" height="33" fill="#ffffff" fill-opacity="0.92"/><text x="2288" y="1698" text-anchor="middle" font-size="22" fill="#1a3f8c" font-family="Segoe UI, Helvetica Neue, Arial, sans-serif">dct:subject</text><line x1="1768" y1="2216" x2="1452" y2="2175" stroke="#1a56db" stroke-width="1.5" marker-end="url(#arrow-block-1a56db)"/><rect x="1474" y="2162" width="273" height="66" fill="#ffffff" fill-opacity="0.92"/><text x="1610" y="2189" text-anchor="middle" font-size="22" fill="#1a3f8c" font-family="Segoe UI, Helvetica Neue, Arial, sans-serif">crm:P50i_is_current</text><text x="1610" y="2216" text-anchor="middle" font-size="22" fill="#1a3f8c" font-family="Segoe UI, Helvetica Neue, Arial, sans-serif">_keeper_of</text><line x1="1339" y1="2050" x2="2440" y2="1230" stroke="#1a56db" stroke-width="1.5" marker-end="url(#arrow-block-1a56db)"/><rect x="1674" y="1607" width="431" height="66" fill="#ffffff" fill-opacity="0.92"/><text x="1890" y="1633" text-anchor="middle" font-size="22" fill="#1a3f8c" font-family="Segoe UI, Helvetica Neue, Arial, sans-serif">ninja:isAssociatedWithArchetype</text><text x="1890" y="1661" text-anchor="middle" font-size="22" fill="#1a3f8c" font-family="Segoe UI, Helvetica Neue, Arial, sans-serif">ninja:isToolOfDiscipline</text><line x1="1338" y1="1211" x2="2327" y2="1150" stroke="#1a56db" stroke-width="1.5" marker-end="url(#arrow-block-1a56db)"/><rect x="1742" y="1164" width="180" height="33" fill="#ffffff" fill-opacity="0.92"/><text x="1832" y="1188" text-anchor="middle" font-size="22" fill="#1a3f8c" font-family="Segoe UI, Helvetica Neue, Arial, sans-serif">foaf:depicts</text><line x1="1361" y1="621" x2="1521" y2="562" stroke="#1a56db" stroke-width="1.5" marker-end="url(#arrow-block-1a56db)"/><rect x="1278" y="575" width="326" height="33" fill="#ffffff" fill-opacity="0.92"/><text x="1441" y="599" text-anchor="middle" font-size="22" fill="#1a3f8c" font-family="Segoe UI, Helvetica Neue, Arial, sans-serif">crm:P11_had_participant</text><line x1="1361" y1="781" x2="2327" y2="1065" stroke="#1a56db" stroke-width="1.5" marker-end="url(#arrow-block-1a56db)"/><rect x="1655" y="906" width="378" height="33" fill="#ffffff" fill-opacity="0.92"/><text x="1844" y="930" text-anchor="middle" font-size="22" fill="#1a3f8c" font-family="Segoe UI, Helvetica Neue, Arial, sans-serif">ninja:exemplifiesDiscipline</text><line x1="1226" y1="806" x2="2368" y2="1845" stroke="#1a56db" stroke-width="1.5" marker-end="url(#arrow-block-1a56db)"/><rect x="1687" y="1309" width="220" height="33" fill="#ffffff" fill-opacity="0.92"/><text x="1797" y="1333" text-anchor="middle" font-size="22" fill="#1a3f8c" font-family="Segoe UI, Helvetica Neue, Arial, sans-serif">schema:location</text><line x1="1807" y1="567" x2="2427" y2="1845" stroke="#1a56db" stroke-width="1.5" marker-end="url(#arrow-block-1a56db)"/><rect x="1994" y="1190" width="246" height="33" fill="#ffffff" fill-opacity="0.92"/><text x="2117" y="1213" text-anchor="middle" font-size="22" fill="#1a3f8c" font-family="Segoe UI, Helvetica Neue, Arial, sans-serif">schema:birthPlace</text><path d="M 2713 1868 C 2881 1868, 2881 1925, 2713 1925" fill="none" stroke="#1a56db" stroke-width="1.5" marker-end="url(#arrow-block-1a56db)"/><rect x="2764" y="1880" width="233" height="33" fill="#ffffff" fill-opacity="0.92"/><text x="2881" y="1903" text-anchor="middle" font-size="22" fill="#1a3f8c" font-family="Segoe UI, Helvetica Neue, Arial, sans-serif">dct:isReplacedBy</text><path d="M 2713 1955 C 2881 1955, 2881 2012, 2713 2012" fill="none" stroke="#1a56db" stroke-width="1.5" marker-end="url(#arrow-block-1a56db)"/><rect x="2718" y="1967" width="326" height="33" fill="#ffffff" fill-opacity="0.92"/><text x="2881" y="1991" text-anchor="middle" font-size="22" fill="#1a3f8c" font-family="Segoe UI, Helvetica Neue, Arial, sans-serif">schema:containedInPlace</text><line x1="1338" y1="1165" x2="2847" y2="781" stroke="#1a56db" stroke-width="1.5" marker-end="url(#arrow-block-1a56db)"/><rect x="2016" y="956" width="154" height="33" fill="#ffffff" fill-opacity="0.92"/><text x="2092" y="980" text-anchor="middle" font-size="22" fill="#1a3f8c" font-family="Segoe UI, Helvetica Neue, Arial, sans-serif">foaf:maker</text><line x1="1338" y1="1211" x2="2327" y2="1150" stroke="#1a56db" stroke-width="1.5" marker-end="url(#arrow-block-1a56db)"/><rect x="1749" y="1164" width="167" height="33" fill="#ffffff" fill-opacity="0.92"/><text x="1832" y="1188" text-anchor="middle" font-size="22" fill="#1a3f8c" font-family="Segoe UI, Helvetica Neue, Arial, sans-serif">dct:subject</text><path d="M 2807 1063 C 2975 1063, 2975 1120, 2807 1120" fill="none" stroke="#1a56db" stroke-width="1.5" marker-end="url(#arrow-block-1a56db)"/><rect x="2885" y="1075" width="180" height="33" fill="#ffffff" fill-opacity="0.92"/><text x="2975" y="1098" text-anchor="middle" font-size="22" fill="#1a3f8c" font-family="Segoe UI, Helvetica Neue, Arial, sans-serif">skos:related</text><path d="M 2001 400 C 2169 400, 2169 457, 2001 457" fill="none" stroke="#1a56db" stroke-width="1.5" marker-end="url(#arrow-block-1a56db)"/><rect x="2052" y="412" width="233" height="33" fill="#ffffff" fill-opacity="0.92"/><text x="2169" y="435" text-anchor="middle" font-size="22" fill="#1a3f8c" font-family="Segoe UI, Helvetica Neue, Arial, sans-serif">ninja:isVassalOf</text><path d="M 2001 487 C 2169 487, 2169 544, 2001 544" fill="none" stroke="#1a56db" stroke-width="1.5" marker-end="url(#arrow-block-1a56db)"/><rect x="2052" y="499" width="233" height="33" fill="#ffffff" fill-opacity="0.92"/><text x="2169" y="523" text-anchor="middle" font-size="22" fill="#1a3f8c" font-family="Segoe UI, Helvetica Neue, Arial, sans-serif">dct:isReplacedBy</text><line x1="1450" y1="357" x2="1521" y2="383" stroke="#6c8ebf" stroke-width="1.5" marker-end="url(#arrow-block-6c8ebf)"/><rect x="1521" y="377" width="480" height="190" rx="8" fill="#ffff99" stroke="#000000" stroke-width="2"/><text x="1761" y="453" text-anchor="middle" dominant-baseline="middle" font-size="30" font-weight="700" fill="#000000" font-family="Segoe UI, Helvetica Neue, Arial, sans-serif">crm:E21_Person</text><text x="1761" y="491" text-anchor="middle" dominant-baseline="middle" font-size="30" font-weight="700" fill="#000000" font-family="Segoe UI, Helvetica Neue, Arial, sans-serif">+ foaf:Person</text><rect x="2847" y="625" width="480" height="190" rx="8" fill="#ffff99" stroke="#000000" stroke-width="2"/><text x="3087" y="683" text-anchor="middle" dominant-baseline="middle" font-size="30" font-weight="700" fill="#000000" font-family="Segoe UI, Helvetica Neue, Arial, sans-serif">crm:E74_Group</text><text x="3087" y="720" text-anchor="middle" dominant-baseline="middle" font-size="30" font-weight="700" fill="#000000" font-family="Segoe UI, Helvetica Neue, Arial, sans-serif">+ foaf:Organization</text><text x="3087" y="757" text-anchor="middle" dominant-baseline="middle" font-size="30" font-weight="700" fill="#000000" font-family="Segoe UI, Helvetica Neue, Arial, sans-serif">+ schema:Corporation</text><rect x="2327" y="1040" width="480" height="190" rx="8" fill="#ffff99" stroke="#000000" stroke-width="2"/><text x="2567" y="1135" text-anchor="middle" dominant-baseline="middle" font-size="30" font-weight="700" fill="#000000" font-family="Segoe UI, Helvetica Neue, Arial, sans-serif">skos:Concept</text><rect x="2233" y="1845" width="480" height="190" rx="8" fill="#ffff99" stroke="#000000" stroke-width="2"/><text x="2473" y="1940" text-anchor="middle" dominant-baseline="middle" font-size="30" font-weight="700" fill="#000000" font-family="Segoe UI, Helvetica Neue, Arial, sans-serif">schema:Place</text><rect x="2912" y="2371" width="480" height="190" rx="8" fill="#ffff99" stroke="#000000" stroke-width="2"/><text x="3152" y="2466" text-anchor="middle" dominant-baseline="middle" font-size="30" font-weight="700" fill="#000000" font-family="Segoe UI, Helvetica Neue, Arial, sans-serif">schema:AdministrativeArea</text><rect x="2839" y="1430" width="480" height="190" rx="8" fill="#ffff99" stroke="#000000" stroke-width="2"/><text x="3079" y="1506" text-anchor="middle" dominant-baseline="middle" font-size="30" font-weight="700" fill="#000000" font-family="Segoe UI, Helvetica Neue, Arial, sans-serif">schema:LandmarksOrHistorical</text><text x="3079" y="1544" text-anchor="middle" dominant-baseline="middle" font-size="30" font-weight="700" fill="#000000" font-family="Segoe UI, Helvetica Neue, Arial, sans-serif">Buildings</text><rect x="1768" y="2151" width="480" height="190" rx="8" fill="#ffff99" stroke="#000000" stroke-width="2"/><text x="2008" y="2246" text-anchor="middle" dominant-baseline="middle" font-size="30" font-weight="700" fill="#000000" font-family="Segoe UI, Helvetica Neue, Arial, sans-serif">schema:Museum</text><rect x="972" y="2050" width="480" height="190" rx="8" fill="#ffff99" stroke="#000000" stroke-width="2"/><text x="1212" y="2126" text-anchor="middle" dominant-baseline="middle" font-size="30" font-weight="700" fill="#000000" font-family="Segoe UI, Helvetica Neue, Arial, sans-serif">crm:E22_Human-</text><text x="1212" y="2164" text-anchor="middle" dominant-baseline="middle" font-size="30" font-weight="700" fill="#000000" font-family="Segoe UI, Helvetica Neue, Arial, sans-serif">Made_Object</text><rect x="761" y="1586" width="480" height="190" rx="8" fill="#ffff99" stroke="#000000" stroke-width="2"/><text x="1001" y="1681" text-anchor="middle" dominant-baseline="middle" font-size="30" font-weight="700" fill="#000000" font-family="Segoe UI, Helvetica Neue, Arial, sans-serif">schema:Book</text><rect x="858" y="1131" width="480" height="190" rx="8" fill="#ffff99" stroke="#000000" stroke-width="2"/><text x="1098" y="1226" text-anchor="middle" dominant-baseline="middle" font-size="30" font-weight="700" fill="#000000" font-family="Segoe UI, Helvetica Neue, Arial, sans-serif">schema:VideoGame</text><rect x="881" y="616" width="480" height="190" rx="8" fill="#ffff99" stroke="#000000" stroke-width="2"/><text x="1121" y="711" text-anchor="middle" dominant-baseline="middle" font-size="30" font-weight="700" fill="#000000" font-family="Segoe UI, Helvetica Neue, Arial, sans-serif">schema:Event</text><polygon points="1295,-14 1481,-14 1467,46 1281,46" fill="#b6e6b6" stroke="#000000" stroke-width="1.5"/><text x="1381" y="16" text-anchor="middle" dominant-baseline="middle" font-size="20" font-weight="700" fill="#000000" font-family="Segoe UI, Helvetica Neue, Arial, sans-serif">xsd:string</text><polygon points="1933,-14 2119,-14 2105,46 1919,46" fill="#b6e6b6" stroke="#000000" stroke-width="1.5"/><text x="2019" y="16" text-anchor="middle" dominant-baseline="middle" font-size="20" font-weight="700" fill="#000000" font-family="Segoe UI, Helvetica Neue, Arial, sans-serif">xsd:string</text><polygon points="2387,342 2573,342 2559,402 2373,402" fill="#b6e6b6" stroke="#000000" stroke-width="1.5"/><text x="2473" y="372" text-anchor="middle" dominant-baseline="middle" font-size="20" font-weight="700" fill="#000000" font-family="Segoe UI, Helvetica Neue, Arial, sans-serif">xsd:string</text><polygon points="2727,325 2913,325 2899,385 2713,385" fill="#b6e6b6" stroke="#000000" stroke-width="1.5"/><text x="2813" y="355" text-anchor="middle" dominant-baseline="middle" font-size="20" font-weight="700" fill="#000000" font-family="Segoe UI, Helvetica Neue, Arial, sans-serif">xsd:gYear</text><polygon points="2993,357 3179,357 3165,417 2979,417" fill="#b6e6b6" stroke="#000000" stroke-width="1.5"/><text x="3079" y="387" text-anchor="middle" dominant-baseline="middle" font-size="20" font-weight="700" fill="#000000" font-family="Segoe UI, Helvetica Neue, Arial, sans-serif">xsd:string</text><polygon points="3094,975 3280,975 3266,1035 3080,1035" fill="#b6e6b6" stroke="#000000" stroke-width="1.5"/><text x="3180" y="1005" text-anchor="middle" dominant-baseline="middle" font-size="20" font-weight="700" fill="#000000" font-family="Segoe UI, Helvetica Neue, Arial, sans-serif">xsd:string</text><polygon points="3301,1300 3487,1300 3473,1360 3287,1360" fill="#b6e6b6" stroke="#000000" stroke-width="1.5"/><text x="3387" y="1330" text-anchor="middle" dominant-baseline="middle" font-size="20" font-weight="700" fill="#000000" font-family="Segoe UI, Helvetica Neue, Arial, sans-serif">xsd:string</text><polygon points="2972,1785 3158,1785 3144,1845 2958,1845" fill="#b6e6b6" stroke="#000000" stroke-width="1.5"/><text x="3058" y="1815" text-anchor="middle" dominant-baseline="middle" font-size="20" font-weight="700" fill="#000000" font-family="Segoe UI, Helvetica Neue, Arial, sans-serif">xsd:string</text><polygon points="2844,2080 3030,2080 3016,2140 2830,2140" fill="#b6e6b6" stroke="#000000" stroke-width="1.5"/><text x="2930" y="2110" text-anchor="middle" dominant-baseline="middle" font-size="20" font-weight="700" fill="#000000" font-family="Segoe UI, Helvetica Neue, Arial, sans-serif">xsd:gYear</text><polygon points="2653,2338 2839,2338 2825,2398 2639,2398" fill="#b6e6b6" stroke="#000000" stroke-width="1.5"/><text x="2739" y="2368" text-anchor="middle" dominant-baseline="middle" font-size="20" font-weight="700" fill="#000000" font-family="Segoe UI, Helvetica Neue, Arial, sans-serif">xsd:string</text><polygon points="2387,2561 2573,2561 2559,2621 2373,2621" fill="#b6e6b6" stroke="#000000" stroke-width="1.5"/><text x="2473" y="2591" text-anchor="middle" dominant-baseline="middle" font-size="20" font-weight="700" fill="#000000" font-family="Segoe UI, Helvetica Neue, Arial, sans-serif">xsd:string</text><polygon points="2100,2704 2286,2704 2272,2764 2086,2764" fill="#b6e6b6" stroke="#000000" stroke-width="1.5"/><text x="2186" y="2734" text-anchor="middle" dominant-baseline="middle" font-size="20" font-weight="700" fill="#000000" font-family="Segoe UI, Helvetica Neue, Arial, sans-serif">xsd:gYear</text><polygon points="1787,2779 1973,2779 1959,2839 1773,2839" fill="#b6e6b6" stroke="#000000" stroke-width="1.5"/><text x="1873" y="2809" text-anchor="middle" dominant-baseline="middle" font-size="20" font-weight="700" fill="#000000" font-family="Segoe UI, Helvetica Neue, Arial, sans-serif">xsd:string</text><polygon points="1441,2779 1627,2779 1613,2839 1427,2839" fill="#b6e6b6" stroke="#000000" stroke-width="1.5"/><text x="1527" y="2809" text-anchor="middle" dominant-baseline="middle" font-size="20" font-weight="700" fill="#000000" font-family="Segoe UI, Helvetica Neue, Arial, sans-serif">xsd:string</text><polygon points="1231,2737 1417,2737 1403,2797 1217,2797" fill="#b6e6b6" stroke="#000000" stroke-width="1.5"/><text x="1317" y="2767" text-anchor="middle" dominant-baseline="middle" font-size="20" font-weight="700" fill="#000000" font-family="Segoe UI, Helvetica Neue, Arial, sans-serif">xsd:string</text><polygon points="1029,2664 1215,2664 1201,2724 1015,2724" fill="#b6e6b6" stroke="#000000" stroke-width="1.5"/><text x="1115" y="2694" text-anchor="middle" dominant-baseline="middle" font-size="20" font-weight="700" fill="#000000" font-family="Segoe UI, Helvetica Neue, Arial, sans-serif">xsd:string</text><polygon points="841,2561 1027,2561 1013,2621 827,2621" fill="#b6e6b6" stroke="#000000" stroke-width="1.5"/><text x="927" y="2591" text-anchor="middle" dominant-baseline="middle" font-size="20" font-weight="700" fill="#000000" font-family="Segoe UI, Helvetica Neue, Arial, sans-serif">xsd:string</text><polygon points="575,2338 761,2338 747,2398 561,2398" fill="#b6e6b6" stroke="#000000" stroke-width="1.5"/><text x="661" y="2368" text-anchor="middle" dominant-baseline="middle" font-size="20" font-weight="700" fill="#000000" font-family="Segoe UI, Helvetica Neue, Arial, sans-serif">xsd:string</text><polygon points="364,2050 550,2050 536,2110 350,2110" fill="#b6e6b6" stroke="#000000" stroke-width="1.5"/><text x="450" y="2080" text-anchor="middle" dominant-baseline="middle" font-size="20" font-weight="700" fill="#000000" font-family="Segoe UI, Helvetica Neue, Arial, sans-serif">xsd:string</text><polygon points="256,1785 442,1785 428,1845 242,1845" fill="#b6e6b6" stroke="#000000" stroke-width="1.5"/><text x="342" y="1815" text-anchor="middle" dominant-baseline="middle" font-size="20" font-weight="700" fill="#000000" font-family="Segoe UI, Helvetica Neue, Arial, sans-serif">xsd:string</text><polygon points="196,1444 382,1444 368,1504 182,1504" fill="#b6e6b6" stroke="#000000" stroke-width="1.5"/><text x="282" y="1474" text-anchor="middle" dominant-baseline="middle" font-size="20" font-weight="700" fill="#000000" font-family="Segoe UI, Helvetica Neue, Arial, sans-serif">xsd:string</text><polygon points="201,1230 387,1230 373,1290 187,1290" fill="#b6e6b6" stroke="#000000" stroke-width="1.5"/><text x="287" y="1260" text-anchor="middle" dominant-baseline="middle" font-size="20" font-weight="700" fill="#000000" font-family="Segoe UI, Helvetica Neue, Arial, sans-serif">xsd:gYear</text><polygon points="238,1018 424,1018 410,1078 224,1078" fill="#b6e6b6" stroke="#000000" stroke-width="1.5"/><text x="324" y="1048" text-anchor="middle" dominant-baseline="middle" font-size="20" font-weight="700" fill="#000000" font-family="Segoe UI, Helvetica Neue, Arial, sans-serif">xsd:string</text><polygon points="307,815 493,815 479,875 293,875" fill="#b6e6b6" stroke="#000000" stroke-width="1.5"/><text x="393" y="845" text-anchor="middle" dominant-baseline="middle" font-size="20" font-weight="700" fill="#000000" font-family="Segoe UI, Helvetica Neue, Arial, sans-serif">xsd:string</text><polygon points="480,515 666,515 652,575 466,575" fill="#b6e6b6" stroke="#000000" stroke-width="1.5"/><text x="566" y="545" text-anchor="middle" dominant-baseline="middle" font-size="20" font-weight="700" fill="#000000" font-family="Segoe UI, Helvetica Neue, Arial, sans-serif">xsd:string</text><polygon points="701,282 887,282 873,342 687,342" fill="#b6e6b6" stroke="#000000" stroke-width="1.5"/><text x="787" y="312" text-anchor="middle" dominant-baseline="middle" font-size="20" font-weight="700" fill="#000000" font-family="Segoe UI, Helvetica Neue, Arial, sans-serif">xsd:gYear</text><polygon points="969,105 1155,105 1141,165 955,165" fill="#b6e6b6" stroke="#000000" stroke-width="1.5"/><text x="1055" y="135" text-anchor="middle" dominant-baseline="middle" font-size="20" font-weight="700" fill="#000000" font-family="Segoe UI, Helvetica Neue, Arial, sans-serif">xsd:string</text><rect x="1152" y="247" width="300" height="110" rx="8" fill="#dae8fc" stroke="#6c8ebf" stroke-width="2"/><text x="1152" y="280" text-anchor="start" dominant-baseline="middle" font-size="18" font-weight="400" fill="#1a3f8c" font-family="Segoe UI, Helvetica Neue, Arial, sans-serif">&lt;div&gt;Self references:&lt;/div&gt;ninja:isVassalOf</text><text x="1152" y="302" text-anchor="start" dominant-baseline="middle" font-size="18" font-weight="400" fill="#1a3f8c" font-family="Segoe UI, Helvetica Neue, Arial, sans-serif">rdfs:subPropertyOf&lt;div&gt;</text><text x="1152" y="324" text-anchor="start" dominant-baseline="middle" font-size="18" font-weight="400" fill="#1a3f8c" font-family="Segoe UI, Helvetica Neue, Arial, sans-serif">&lt;/div&gt;</text><rect x="-420" y="-420" width="420" height="330" rx="8" fill="none" stroke="#333333" stroke-width="2"/><text x="-400" y="-385" text-anchor="start" dominant-baseline="middle" font-size="22" font-weight="700" fill="#1a1a1a" font-family="Segoe UI, Helvetica Neue, Arial, sans-serif">Conceptual Model (Graffoo notation)</text><rect x="-400" y="-350" width="180" height="55" rx="8" fill="#ffff99" stroke="#000000" stroke-width="2"/><text x="-310" y="-322" text-anchor="middle" dominant-baseline="middle" font-size="30" font-weight="700" fill="#000000" font-family="Segoe UI, Helvetica Neue, Arial, sans-serif">Class</text><polygon points="-386,-280 -220,-280 -234,-230 -400,-230" fill="#b6e6b6" stroke="#000000" stroke-width="1.5"/><text x="-310" y="-255" text-anchor="middle" dominant-baseline="middle" font-size="20" font-weight="700" fill="#000000" font-family="Segoe UI, Helvetica Neue, Arial, sans-serif">Datatype</text><text x="-400" y="-200" text-anchor="start" dominant-baseline="middle" font-size="22" font-weight="700" fill="#1a1a1a" font-family="Segoe UI, Helvetica Neue, Arial, sans-serif">&amp;#8212; Object property (blue)</text><text x="-400" y="-160" text-anchor="start" dominant-baseline="middle" font-size="22" font-weight="700" fill="#1a1a1a" font-family="Segoe UI, Helvetica Neue, Arial, sans-serif">&amp;#8212; Data property (green)</text><text x="-400" y="-120" text-anchor="start" dominant-baseline="middle" font-size="22" font-weight="700" fill="#1a1a1a" font-family="Segoe UI, Helvetica Neue, Arial, sans-serif">&amp;#8212; Class relation (black)</text></svg>