<svg xmlns="http://www.w3.org/2000/svg" viewBox="0 0 3527 2879" font-family="Segoe UI, Helvetica Neue, Arial, sans-serif" role="img" aria-label="Conceptual model: classes and properties in the Ninja RDF graph"><rect width="3527" height="2879" fill="#fbfaf7"/><defs><marker id="arrow-block-000000" viewBox="0 0 10 10" refX="9" refY="5" markerWidth="11" markerHeight="11" orient="auto-start-reverse"><path d="M0,0 L10,5 L0,10 z" fill="#000000"/></marker><marker id="arrow-open-2d8a3e" viewBox="0 0 10 10" refX="9" refY="5" markerWidth="11" markerHeight="11" orient="auto-start-reverse"><path d="M1,1 L9,5 L1,9" fill="none" stroke="#2d8a3e" stroke-width="1.6"/></marker><marker id="arrow-block-1a56db" viewBox="0 0 10 10" refX="9" refY="5" markerWidth="11" markerHeight="11" orient="auto-start-reverse"><path d="M0,0 L10,5 L0,10 z" fill="#1a56db"/></marker><marker id="arrow-block-6c8ebf" viewBox="0 0 10 10" refX="9" refY="5" markerWidth="11" markerHeight="11" orient="auto-start-reverse"><path d="M0,0 L10,5 L0,10 z" fill="#6c8ebf"/></marker></defs><line x1="2960" y1="2470" x2="2560" y2="2035" stroke="#000000" stroke-width="1.5" marker-end="url(#arrow-block-000000)"/><rect x="2660" y="2238" width="200" height="30" fill="#ffffff" fill-opacity="0.92"/><text x="2760" y="2259" text-anchor="middle" font-size="20" fill="#000000" font-family="Segoe UI, Helvetica Neue, Arial, sans-serif">rdfs:subClassOf</text><line x1="2940" y1="1620" x2="2612" y2="1845" stroke="#000000" stroke-width="1.5" marker-end="url(#arrow-block-000000)"/><rect x="2676" y="1718" width="200" height="30" fill="#ffffff" fill-opacity="0.92"/><text x="2776" y="1739" text-anchor="middle" font-size="20" fill="#000000" font-family="Segoe UI, Helvetica Neue, Arial, sans-serif">rdfs:subClassOf</text><line x1="1682" y1="377" x2="1406" y2="46" stroke="#2d8a3e" stroke-width="1.5" marker-end="url(#arrow-open-2d8a3e)"/><rect x="1468" y="196" width="152" height="30" fill="#ffffff" fill-opacity="0.92"/><text x="1544" y="218" text-anchor="middle" font-size="20" fill="#1f5c2b" font-family="Segoe UI, Helvetica Neue, Arial, sans-serif">schema:name</text><line x1="1815" y1="377" x2="2002" y2="46" stroke="#2d8a3e" stroke-width="1.5" marker-end="url(#arrow-open-2d8a3e)"/><rect x="1808" y="196" width="200" height="30" fill="#ffffff" fill-opacity="0.92"/><text x="1908" y="218" text-anchor="middle" font-size="20" fill="#1f5c2b" font-family="Segoe UI, Helvetica Neue, Arial, sans-serif">dct:description</text><line x1="2787" y1="625" x2="2510" y2="402" stroke="#2d8a3e" stroke-width="1.5" marker-end="url(#arrow-open-2d8a3e)"/><rect x="2573" y="498" width="152" height="30" fill="#ffffff" fill-opacity="0.92"/><text x="2649" y="520" text-anchor="middle" font-size="20" fill="#1f5c2b" font-family="Segoe UI, Helvetica Neue, Arial, sans-serif">schema:name</text><line x1="2881" y1="625" x2="2821" y2="385" stroke="#2d8a3e" stroke-width="1.5" marker-end="url(#arrow-open-2d8a3e)"/><rect x="2793" y="490" width="116" height="30" fill="#ffffff" fill-opacity="0.92"/><text x="2851" y="511" text-anchor="middle" font-size="20" fill="#1f5c2b" font-family="Segoe UI, Helvetica Neue, Arial, sans-serif">dct:date</text><line x1="2955" y1="625" x2="3063" y2="417" stroke="#2d8a3e" stroke-width="1.5" marker-end="url(#arrow-open-2d8a3e)"/><rect x="2909" y="506" width="200" height="30" fill="#ffffff" fill-opacity="0.92"/><text x="3009" y="527" text-anchor="middle" font-size="20" fill="#1f5c2b" font-family="Segoe UI, Helvetica Neue, Arial, sans-serif">dct:description</text><line x1="2755" y1="1133" x2="3080" y2="1035" stroke="#2d8a3e" stroke-width="1.5" marker-end="url(#arrow-open-2d8a3e)"/><rect x="2842" y="1069" width="152" height="30" fill="#ffffff" fill-opacity="0.92"/><text x="2918" y="1090" text-anchor="middle" font-size="20" fill="#1f5c2b" font-family="Segoe UI, Helvetica Neue, Arial, sans-serif">schema:name</text><line x1="2755" y1="1239" x2="3287" y2="1316" stroke="#2d8a3e" stroke-width="1.5" marker-end="url(#arrow-open-2d8a3e)"/><rect x="2921" y="1263" width="200" height="30" fill="#ffffff" fill-opacity="0.92"/><text x="3021" y="1284" text-anchor="middle" font-size="20" fill="#1f5c2b" font-family="Segoe UI, Helvetica Neue, Arial, sans-serif">dct:description</text><line x1="2713" y1="1889" x2="2958" y2="1836" stroke="#2d8a3e" stroke-width="1.5" marker-end="url(#arrow-open-2d8a3e)"/><rect x="2760" y="1848" width="152" height="30" fill="#ffffff" fill-opacity="0.92"/><text x="2836" y="1869" text-anchor="middle" font-size="20" fill="#1f5c2b" font-family="Segoe UI, Helvetica Neue, Arial, sans-serif">schema:name</text><line x1="2713" y1="2029" x2="2849" y2="2080" stroke="#2d8a3e" stroke-width="1.5" marker-end="url(#arrow-open-2d8a3e)"/><rect x="2723" y="2040" width="116" height="30" fill="#ffffff" fill-opacity="0.92"/><text x="2781" y="2061" text-anchor="middle" font-size="20" fill="#1f5c2b" font-family="Segoe UI, Helvetica Neue, Arial, sans-serif">dct:date</text><line x1="2532" y1="2035" x2="2720" y2="2338" stroke="#2d8a3e" stroke-width="1.5" marker-end="url(#arrow-open-2d8a3e)"/><rect x="2526" y="2172" width="200" height="30" fill="#ffffff" fill-opacity="0.92"/><text x="2626" y="2193" text-anchor="middle" font-size="20" fill="#1f5c2b" font-family="Segoe UI, Helvetica Neue, Arial, sans-serif">dct:description</text><line x1="2136" y1="2341" x2="2433" y2="2561" stroke="#2d8a3e" stroke-width="1.5" marker-end="url(#arrow-open-2d8a3e)"/><rect x="2208" y="2436" width="152" height="30" fill="#ffffff" fill-opacity="0.92"/><text x="2284" y="2457" text-anchor="middle" font-size="20" fill="#1f5c2b" font-family="Segoe UI, Helvetica Neue, Arial, sans-serif">schema:name</text><line x1="2043" y1="2341" x2="2175" y2="2704" stroke="#2d8a3e" stroke-width="1.5" marker-end="url(#arrow-open-2d8a3e)"/><rect x="1985" y="2508" width="248" height="30" fill="#ffffff" fill-opacity="0.92"/><text x="2109" y="2529" text-anchor="middle" font-size="20" fill="#1f5c2b" font-family="Segoe UI, Helvetica Neue, Arial, sans-serif">schema:foundingDate</text><line x1="1985" y1="2341" x2="1880" y2="2779" stroke="#2d8a3e" stroke-width="1.5" marker-end="url(#arrow-open-2d8a3e)"/><rect x="1833" y="2545" width="200" height="30" fill="#ffffff" fill-opacity="0.92"/><text x="1933" y="2566" text-anchor="middle" font-size="20" fill="#1f5c2b" font-family="Segoe UI, Helvetica Neue, Arial, sans-serif">dct:description</text><line x1="1415" y1="2341" x2="1520" y2="2779" stroke="#2d8a3e" stroke-width="1.5" marker-end="url(#arrow-open-2d8a3e)"/><rect x="1391" y="2545" width="152" height="30" fill="#ffffff" fill-opacity="0.92"/><text x="1467" y="2566" text-anchor="middle" font-size="20" fill="#1f5c2b" font-family="Segoe UI, Helvetica Neue, Arial, sans-serif">schema:name</text><line x1="1378" y1="2341" x2="1321" y2="2737" stroke="#2d8a3e" stroke-width="1.5" marker-end="url(#arrow-open-2d8a3e)"/><rect x="1226" y="2524" width="248" height="30" fill="#ffffff" fill-opacity="0.92"/><text x="1350" y="2545" text-anchor="middle" font-size="20" fill="#1f5c2b" font-family="Segoe UI, Helvetica Neue, Arial, sans-serif">crm:P45_consists_of</text><line x1="1333" y1="2341" x2="1134" y2="2664" stroke="#2d8a3e" stroke-width="1.5" marker-end="url(#arrow-open-2d8a3e)"/><rect x="1097" y="2488" width="272" height="30" fill="#ffffff" fill-opacity="0.92"/><text x="1233" y="2509" text-anchor="middle" font-size="20" fill="#1f5c2b" font-family="Segoe UI, Helvetica Neue, Arial, sans-serif">crm:P43_has_dimension</text><line x1="1264" y1="2341" x2="967" y2="2561" stroke="#2d8a3e" stroke-width="1.5" marker-end="url(#arrow-open-2d8a3e)"/><rect x="1016" y="2436" width="200" height="30" fill="#ffffff" fill-opacity="0.92"/><text x="1116" y="2457" text-anchor="middle" font-size="20" fill="#1f5c2b" font-family="Segoe UI, Helvetica Neue, Arial, sans-serif">dct:description</text><line x1="873" y1="1945" x2="676" y2="2338" stroke="#2d8a3e" stroke-width="1.5" marker-end="url(#arrow-open-2d8a3e)"/><rect x="699" y="2126" width="152" height="30" fill="#ffffff" fill-opacity="0.92"/><text x="775" y="2148" text-anchor="middle" font-size="20" fill="#1f5c2b" font-family="Segoe UI, Helvetica Neue, Arial, sans-serif">schema:name</text><line x1="726" y1="1945" x2="511" y2="2050" stroke="#2d8a3e" stroke-width="1.5" marker-end="url(#arrow-open-2d8a3e)"/><rect x="531" y="1982" width="176" height="30" fill="#ffffff" fill-opacity="0.92"/><text x="619" y="2004" text-anchor="middle" font-size="20" fill="#1f5c2b" font-family="Segoe UI, Helvetica Neue, Arial, sans-serif">schema:author</text><line x1="681" y1="1835" x2="442" y2="1821" stroke="#2d8a3e" stroke-width="1.5" marker-end="url(#arrow-open-2d8a3e)"/><rect x="462" y="1813" width="200" height="30" fill="#ffffff" fill-opacity="0.92"/><text x="562" y="1835" text-anchor="middle" font-size="20" fill="#1f5c2b" font-family="Segoe UI, Helvetica Neue, Arial, sans-serif">dct:description</text><line x1="594" y1="1339" x2="351" y2="1444" stroke="#2d8a3e" stroke-width="1.5" marker-end="url(#arrow-open-2d8a3e)"/><rect x="397" y="1376" width="152" height="30" fill="#ffffff" fill-opacity="0.92"/><text x="473" y="1398" text-anchor="middle" font-size="20" fill="#1f5c2b" font-family="Segoe UI, Helvetica Neue, Arial, sans-serif">schema:name</text><line x1="574" y1="1251" x2="387" y2="1257" stroke="#2d8a3e" stroke-width="1.5" marker-end="url(#arrow-open-2d8a3e)"/><rect x="410" y="1239" width="140" height="30" fill="#ffffff" fill-opacity="0.92"/><text x="480" y="1261" text-anchor="middle" font-size="20" fill="#1f5c2b" font-family="Segoe UI, Helvetica Neue, Arial, sans-serif">dct:issued</text><line x1="576" y1="1149" x2="399" y2="1078" stroke="#2d8a3e" stroke-width="1.5" marker-end="url(#arrow-open-2d8a3e)"/><rect x="406" y="1098" width="164" height="30" fill="#ffffff" fill-opacity="0.92"/><text x="488" y="1120" text-anchor="middle" font-size="20" fill="#1f5c2b" font-family="Segoe UI, Helvetica Neue, Arial, sans-serif">schema:genre</text><line x1="714" y1="1149" x2="425" y2="875" stroke="#2d8a3e" stroke-width="1.5" marker-end="url(#arrow-open-2d8a3e)"/><rect x="463" y="997" width="212" height="30" fill="#ffffff" fill-opacity="0.92"/><text x="569" y="1018" text-anchor="middle" font-size="20" fill="#1f5c2b" font-family="Segoe UI, Helvetica Neue, Arial, sans-serif">schema:publisher</text><line x1="881" y1="639" x2="666" y2="575" stroke="#2d8a3e" stroke-width="1.5" marker-end="url(#arrow-open-2d8a3e)"/><rect x="698" y="592" width="152" height="30" fill="#ffffff" fill-opacity="0.92"/><text x="774" y="613" text-anchor="middle" font-size="20" fill="#1f5c2b" font-family="Segoe UI, Helvetica Neue, Arial, sans-serif">schema:name</text><line x1="1041" y1="616" x2="812" y2="342" stroke="#2d8a3e" stroke-width="1.5" marker-end="url(#arrow-open-2d8a3e)"/><rect x="869" y="464" width="116" height="30" fill="#ffffff" fill-opacity="0.92"/><text x="927" y="485" text-anchor="middle" font-size="20" fill="#1f5c2b" font-family="Segoe UI, Helvetica Neue, Arial, sans-serif">dct:date</text><line x1="1110" y1="616" x2="1058" y2="165" stroke="#2d8a3e" stroke-width="1.5" marker-end="url(#arrow-open-2d8a3e)"/><rect x="984" y="376" width="200" height="30" fill="#ffffff" fill-opacity="0.92"/><text x="1084" y="397" text-anchor="middle" font-size="20" fill="#1f5c2b" font-family="Segoe UI, Helvetica Neue, Arial, sans-serif">dct:description</text><line x1="2001" y1="524" x2="2665" y2="668" stroke="#1a56db" stroke-width="1.5" marker-end="url(#arrow-block-1a56db)"/><rect x="2058" y="580" width="550" height="33" fill="#ffffff" fill-opacity="0.92"/><text x="2333" y="603" text-anchor="middle" font-size="22" fill="#1a3f8c" font-family="Segoe UI, Helvetica Neue, Arial, sans-serif">crm:P107i_is_current_or_former_member_of</text><line x1="1859" y1="567" x2="2417" y2="1110" stroke="#1a56db" stroke-width="1.5" marker-end="url(#arrow-block-1a56db)"/><rect x="1975" y="822" width="326" height="33" fill="#ffffff" fill-opacity="0.92"/><text x="2138" y="846" text-anchor="middle" font-size="22" fill="#1a3f8c" font-family="Segoe UI, Helvetica Neue, Arial, sans-serif">ninja:embodiesArchetype</text><line x1="1807" y1="567" x2="2427" y2="1845" stroke="#1a56db" stroke-width="1.5" marker-end="url(#arrow-block-1a56db)"/><rect x="1981" y="1190" width="273" height="33" fill="#ffffff" fill-opacity="0.92"/><text x="2117" y="1213" text-anchor="middle" font-size="22" fill="#1a3f8c" font-family="Segoe UI, Helvetica Neue, Arial, sans-serif">schema:homeLocation</text><line x1="1859" y1="567" x2="2417" y2="1110" stroke="#1a56db" stroke-width="1.5" marker-end="url(#arrow-block-1a56db)"/><rect x="2015" y="822" width="246" height="33" fill="#ffffff" fill-opacity="0.92"/><text x="2138" y="846" text-anchor="middle" font-size="22" fill="#1a3f8c" font-family="Segoe UI, Helvetica Neue, Arial, sans-serif">schema:knowsAbout</text><line x1="2829" y1="815" x2="2591" y2="1110" stroke="#1a56db" stroke-width="1.5" marker-end="url(#arrow-block-1a56db)"/><rect x="2587" y="946" width="246" height="33" fill="#ffffff" fill-opacity="0.92"/><text x="2710" y="970" text-anchor="middle" font-size="22" fill="#1a3f8c" font-family="Segoe UI, Helvetica Neue, Arial, sans-serif">schema:knowsAbout</text><line x1="2871" y1="815" x2="2507" y2="1845" stroke="#1a56db" stroke-width="1.5" marker-end="url(#arrow-block-1a56db)"/><rect x="2526" y="1314" width="326" height="33" fill="#ffffff" fill-opacity="0.92"/><text x="2689" y="1337" text-anchor="middle" font-size="22" fill="#1a3f8c" font-family="Segoe UI, Helvetica Neue, Arial, sans-serif">schema:foundingLocation</text><line x1="1156" y1="1755" x2="2280" y2="1300" stroke="#1a56db" stroke-width="1.5" marker-end="url(#arrow-block-1a56db)"/><rect x="1634" y="1511" width="167" height="33" fill="#ffffff" fill-opacity="0.92"/><text x="1718" y="1535" text-anchor="middle" font-size="22" fill="#1a3f8c" font-family="Segoe UI, Helvetica Neue, Arial, sans-serif">dct:subject</text><line x1="1088" y1="1755" x2="2738" y2="815" stroke="#1a56db" stroke-width="1.5" marker-end="url(#arrow-block-1a56db)"/><rect x="1730" y="1268" width="365" height="33" fill="#ffffff" fill-opacity="0.92"/><text x="1913" y="1292" text-anchor="middle" font-size="22" fill="#1a3f8c" font-family="Segoe UI, Helvetica Neue, Arial, sans-serif">ninja:preservesKnowledgeOf</text><line x1="2152" y1="2151" x2="2329" y2="2035" stroke="#1a56db" stroke-width="1.5" marker-end="url(#arrow-block-1a56db)"/><rect x="2078" y="2076" width="326" height="33" fill="#ffffff" fill-opacity="0.92"/><text x="2240" y="2100" text-anchor="middle" font-size="22" fill="#1a3f8c" font-family="Segoe UI, Helvetica Neue, Arial, sans-serif">schema:containedInPlace</text><line x1="2054" y1="2151" x2="2469" y2="1300" stroke="#1a56db" stroke-width="1.5" marker-end="url(#arrow-block-1a56db)"/><rect x="2178" y="1709" width="167" height="33" fill="#ffffff" fill-opacity="0.92"/><text x="2262" y="1733" text-anchor="middle" font-size="22" fill="#1a3f8c" font-family="Segoe UI, Helvetica Neue, Arial, sans-serif">dct:subject</text><line x1="1768" y1="2246" x2="1632" y2="2246" stroke="#1a56db" stroke-width="1.5" marker-end="url(#arrow-block-1a56db)"/><rect x="1564" y="2213" width="273" height="66" fill="#ffffff" fill-opacity="0.92"/><text x="1700" y="2239" text-anchor="middle" font-size="22" fill="#1a3f8c" font-family="Segoe UI, Helvetica Neue, Arial, sans-serif">crm:P50i_is_current</text><text x="1700" y="2267" text-anchor="middle" font-size="22" fill="#1a3f8c" font-family="Segoe UI, Helvetica Neue, Arial, sans-serif">_keeper_of</text><line x1="1494" y1="2151" x2="2413" y2="1300" stroke="#1a56db" stroke-width="1.5" marker-end="url(#arrow-block-1a56db)"/><rect x="1738" y="1692" width="431" height="66" fill="#ffffff" fill-opacity="0.92"/><text x="1954" y="1719" text-anchor="middle" font-size="22" fill="#1a3f8c" font-family="Segoe UI, Helvetica Neue, Arial, sans-serif">ninja:isAssociatedWithArchetype</text><text x="1954" y="1746" text-anchor="middle" font-size="22" fill="#1a3f8c" font-family="Segoe UI, Helvetica Neue, Arial, sans-serif">ninja:isToolOfDiscipline</text><line x1="1054" y1="1238" x2="2275" y2="1211" stroke="#1a56db" stroke-width="1.5" marker-end="url(#arrow-block-1a56db)"/><rect x="1574" y="1208" width="180" height="33" fill="#ffffff" fill-opacity="0.92"/><text x="1664" y="1232" text-anchor="middle" font-size="22" fill="#1a3f8c" font-family="Segoe UI, Helvetica Neue, Arial, sans-serif">foaf:depicts</text><line x1="1361" y1="621" x2="1521" y2="562" stroke="#1a56db" stroke-width="1.5" marker-end="url(#arrow-block-1a56db)"/><rect x="1278" y="575" width="326" height="33" fill="#ffffff" fill-opacity="0.92"/><text x="1441" y="599" text-anchor="middle" font-size="22" fill="#1a3f8c" font-family="Segoe UI, Helvetica Neue, Arial, sans-serif">crm:P11_had_participant</text><line x1="1361" y1="796" x2="2275" y2="1120" stroke="#1a56db" stroke-width="1.5" marker-end="url(#arrow-block-1a56db)"/><rect x="1629" y="942" width="378" height="33" fill="#ffffff" fill-opacity="0.92"/><text x="1818" y="965" text-anchor="middle" font-size="22" fill="#1a3f8c" font-family="Segoe UI, Helvetica Neue, Arial, sans-serif">ninja:exemplifiesDiscipline</text><line x1="1226" y1="806" x2="2368" y2="1845" stroke="#1a56db" stroke-width="1.5" marker-end="url(#arrow-block-1a56db)"/><rect x="1687" y="1309" width="220" height="33" fill="#ffffff" fill-opacity="0.92"/><text x="1797" y="1333" text-anchor="middle" font-size="22" fill="#1a3f8c" font-family="Segoe UI, Helvetica Neue, Arial, sans-serif">schema:location</text><line x1="1807" y1="567" x2="2427" y2="1845" stroke="#1a56db" stroke-width="1.5" marker-end="url(#arrow-block-1a56db)"/><rect x="1994" y="1190" width="246" height="33" fill="#ffffff" fill-opacity="0.92"/><text x="2117" y="1213" text-anchor="middle" font-size="22" fill="#1a3f8c" font-family="Segoe UI, Helvetica Neue, Arial, sans-serif">schema:birthPlace</text><path d="M 2713 1868 C 2881 1868, 2881 1925, 2713 1925" fill="none" stroke="#1a56db" stroke-width="1.5" marker-end="url(#arrow-block-1a56db)"/><rect x="2764" y="1880" width="233" height="33" fill="#ffffff" fill-opacity="0.92"/><text x="2881" y="1903" text-anchor="middle" font-size="22" fill="#1a3f8c" font-family="Segoe UI, Helvetica Neue, Arial, sans-serif">dct:isReplacedBy</text><path d="M 2713 1955 C 2881 1955, 2881 2012, 2713 2012" fill="none" stroke="#1a56db" stroke-width="1.5" marker-end="url(#arrow-block-1a56db)"/><rect x="2718" y="1967" width="326" height="33" fill="#ffffff" fill-opacity="0.92"/><text x="2881" y="1991" text-anchor="middle" font-size="22" fill="#1a3f8c" font-family="Segoe UI, Helvetica Neue, Arial, sans-serif">schema:containedInPlace</text><line x1="1054" y1="1184" x2="2665" y2="780" stroke="#1a56db" stroke-width="1.5" marker-end="url(#arrow-block-1a56db)"/><rect x="1782" y="966" width="154" height="33" fill="#ffffff" fill-opacity="0.92"/><text x="1860" y="989" text-anchor="middle" font-size="22" fill="#1a3f8c" font-family="Segoe UI, Helvetica Neue, Arial, sans-serif">foaf:maker</text><line x1="1054" y1="1238" x2="2275" y2="1211" stroke="#1a56db" stroke-width="1.5" marker-end="url(#arrow-block-1a56db)"/><rect x="1581" y="1208" width="167" height="33" fill="#ffffff" fill-opacity="0.92"/><text x="1664" y="1232" text-anchor="middle" font-size="22" fill="#1a3f8c" font-family="Segoe UI, Helvetica Neue, Arial, sans-serif">dct:subject</text><path d="M 2755 1133 C 2923 1133, 2923 1190, 2755 1190" fill="none" stroke="#1a56db" stroke-width="1.5" marker-end="url(#arrow-block-1a56db)"/><rect x="2833" y="1145" width="180" height="33" fill="#ffffff" fill-opacity="0.92"/><text x="2923" y="1168" text-anchor="middle" font-size="22" fill="#1a3f8c" font-family="Segoe UI, Helvetica Neue, Arial, sans-serif">skos:related</text><path d="M 2001 400 C 2169 400, 2169 457, 2001 457" fill="none" stroke="#1a56db" stroke-width="1.5" marker-end="url(#arrow-block-1a56db)"/><rect x="2052" y="412" width="233" height="33" fill="#ffffff" fill-opacity="0.92"/><text x="2169" y="435" text-anchor="middle" font-size="22" fill="#1a3f8c" font-family="Segoe UI, Helvetica Neue, Arial, sans-serif">ninja:isVassalOf</text><path d="M 2001 487 C 2169 487, 2169 544, 2001 544" fill="none" stroke="#1a56db" stroke-width="1.5" marker-end="url(#arrow-block-1a56db)"/><rect x="2052" y="499" width="233" height="33" fill="#ffffff" fill-opacity="0.92"/><text x="2169" y="523" text-anchor="middle" font-size="22" fill="#1a3f8c" font-family="Segoe UI, Helvetica Neue, Arial, sans-serif">dct:isReplacedBy</text><line x1="1450" y1="357" x2="1521" y2="383" stroke="#6c8ebf" stroke-width="1.5" marker-end="url(#arrow-block-6c8ebf)"/><rect x="1521" y="377" width="480" height="190" rx="8" fill="#ffff99" stroke="#000000" stroke-width="2"/><text x="1761" y="453" text-anchor="middle" dominant-baseline="middle" font-size="30" font-weight="700" fill="#000000" font-family="Segoe UI, Helvetica Neue, Arial, sans-serif">crm:E21_Person</text><text x="1761" y="491" text-anchor="middle" dominant-baseline="middle" font-size="30" font-weight="700" fill="#000000" font-family="Segoe UI, Helvetica Neue, Arial, sans-serif">+ foaf:Person</text><rect x="2665" y="625" width="480" height="190" rx="8" fill="#ffff99" stroke="#000000" stroke-width="2"/><text x="2905" y="683" text-anchor="middle" dominant-baseline="middle" font-size="30" font-weight="700" fill="#000000" font-family="Segoe UI, Helvetica Neue, Arial, sans-serif">crm:E74_Group</text><text x="2905" y="720" text-anchor="middle" dominant-baseline="middle" font-size="30" font-weight="700" fill="#000000" font-family="Segoe UI, Helvetica Neue, Arial, sans-serif">+ foaf:Organization</text><text x="2905" y="757" text-anchor="middle" dominant-baseline="middle" font-size="30" font-weight="700" fill="#000000" font-family="Segoe UI, Helvetica Neue, Arial, sans-serif">+ schema:Corporation</text><rect x="2275" y="1110" width="480" height="190" rx="8" fill="#ffff99" stroke="#000000" stroke-width="2"/><text x="2515" y="1205" text-anchor="middle" dominant-baseline="middle" font-size="30" font-weight="700" fill="#000000" font-family="Segoe UI, Helvetica Neue, Arial, sans-serif">skos:Concept</text><rect x="2233" y="1845" width="480" height="190" rx="8" fill="#ffff99" stroke="#000000" stroke-width="2"/><text x="2473" y="1940" text-anchor="middle" dominant-baseline="middle" font-size="30" font-weight="700" fill="#000000" font-family="Segoe UI, Helvetica Neue, Arial, sans-serif">schema:Place</text><rect x="2807" y="2470" width="480" height="190" rx="8" fill="#ffff99" stroke="#000000" stroke-width="2"/><text x="3047" y="2565" text-anchor="middle" dominant-baseline="middle" font-size="30" font-weight="700" fill="#000000" font-family="Segoe UI, Helvetica Neue, Arial, sans-serif">schema:AdministrativeArea</text><rect x="2839" y="1430" width="480" height="190" rx="8" fill="#ffff99" stroke="#000000" stroke-width="2"/><text x="3079" y="1506" text-anchor="middle" dominant-baseline="middle" font-size="30" font-weight="700" fill="#000000" font-family="Segoe UI, Helvetica Neue, Arial, sans-serif">schema:LandmarksOrHistorical</text><text x="3079" y="1544" text-anchor="middle" dominant-baseline="middle" font-size="30" font-weight="700" fill="#000000" font-family="Segoe UI, Helvetica Neue, Arial, sans-serif">Buildings</text><rect x="1768" y="2151" width="480" height="190" rx="8" fill="#ffff99" stroke="#000000" stroke-width="2"/><text x="2008" y="2246" text-anchor="middle" dominant-baseline="middle" font-size="30" font-weight="700" fill="#000000" font-family="Segoe UI, Helvetica Neue, Arial, sans-serif">schema:Museum</text><rect x="1152" y="2151" width="480" height="190" rx="8" fill="#ffff99" stroke="#000000" stroke-width="2"/><text x="1392" y="2227" text-anchor="middle" dominant-baseline="middle" font-size="30" font-weight="700" fill="#000000" font-family="Segoe UI, Helvetica Neue, Arial, sans-serif">crm:E22_Human-</text><text x="1392" y="2265" text-anchor="middle" dominant-baseline="middle" font-size="30" font-weight="700" fill="#000000" font-family="Segoe UI, Helvetica Neue, Arial, sans-serif">Made_Object</text><rect x="681" y="1755" width="480" height="190" rx="8" fill="#ffff99" stroke="#000000" stroke-width="2"/><text x="921" y="1850" text-anchor="middle" dominant-baseline="middle" font-size="30" font-weight="700" fill="#000000" font-family="Segoe UI, Helvetica Neue, Arial, sans-serif">schema:Book</text><rect x="574" y="1149" width="480" height="190" rx="8" fill="#ffff99" stroke="#000000" stroke-width="2"/><text x="814" y="1244" text-anchor="middle" dominant-baseline="middle" font-size="30" font-weight="700" fill="#000000" font-family="Segoe UI, Helvetica Neue, Arial, sans-serif">schema:VideoGame</text><rect x="881" y="616" width="480" height="190" rx="8" fill="#ffff99" stroke="#000000" stroke-width="2"/><text x="1121" y="711" text-anchor="middle" dominant-baseline="middle" font-size="30" font-weight="700" fill="#000000" font-family="Segoe UI, Helvetica Neue, Arial, sans-serif">schema:Event</text><polygon points="1295,-14 1481,-14 1467,46 1281,46" fill="#b6e6b6" stroke="#000000" stroke-width="1.5"/><text x="1381" y="16" text-anchor="middle" dominant-baseline="middle" font-size="20" font-weight="700" fill="#000000" font-family="Segoe UI, Helvetica Neue, Arial, sans-serif">xsd:string</text><polygon points="1933,-14 2119,-14 2105,46 1919,46" fill="#b6e6b6" stroke="#000000" stroke-width="1.5"/><text x="2019" y="16" text-anchor="middle" dominant-baseline="middle" font-size="20" font-weight="700" fill="#000000" font-family="Segoe UI, Helvetica Neue, Arial, sans-serif">xsd:string</text><polygon points="2387,342 2573,342 2559,402 2373,402" fill="#b6e6b6" stroke="#000000" stroke-width="1.5"/><text x="2473" y="372" text-anchor="middle" dominant-baseline="middle" font-size="20" font-weight="700" fill="#000000" font-family="Segoe UI, Helvetica Neue, Arial, sans-serif">xsd:string</text><polygon points="2727,325 2913,325 2899,385 2713,385" fill="#b6e6b6" stroke="#000000" stroke-width="1.5"/><text x="2813" y="355" text-anchor="middle" dominant-baseline="middle" font-size="20" font-weight="700" fill="#000000" font-family="Segoe UI, Helvetica Neue, Arial, sans-serif">xsd:gYear</text><polygon points="2993,357 3179,357 3165,417 2979,417" fill="#b6e6b6" stroke="#000000" stroke-width="1.5"/><text x="3079" y="387" text-anchor="middle" dominant-baseline="middle" font-size="20" font-weight="700" fill="#000000" font-family="Segoe UI, Helvetica Neue, Arial, sans-serif">xsd:string</text><polygon points="3094,975 3280,975 3266,1035 3080,1035" fill="#b6e6b6" stroke="#000000" stroke-width="1.5"/><text x="3180" y="1005" text-anchor="middle" dominant-baseline="middle" font-size="20" font-weight="700" fill="#000000" font-family="Segoe UI, Helvetica Neue, Arial, sans-serif">xsd:string</text><polygon points="3301,1300 3487,1300 3473,1360 3287,1360" fill="#b6e6b6" stroke="#000000" stroke-width="1.5"/><text x="3387" y="1330" text-anchor="middle" dominant-baseline="middle" font-size="20" font-weight="700" fill="#000000" font-family="Segoe UI, Helvetica Neue, Arial, sans-serif">xsd:string</text><polygon points="2972,1785 3158,1785 3144,1845 2958,1845" fill="#b6e6b6" stroke="#000000" stroke-width="1.5"/><text x="3058" y="1815" text-anchor="middle" dominant-baseline="middle" font-size="20" font-weight="700" fill="#000000" font-family="Segoe UI, Helvetica Neue, Arial, sans-serif">xsd:string</text><polygon points="2844,2080 3030,2080 3016,2140 2830,2140" fill="#b6e6b6" stroke="#000000" stroke-width="1.5"/><text x="2930" y="2110" text-anchor="middle" dominant-baseline="middle" font-size="20" font-weight="700" fill="#000000" font-family="Segoe UI, Helvetica Neue, Arial, sans-serif">xsd:gYear</text><polygon points="2653,2338 2839,2338 2825,2398 2639,2398" fill="#b6e6b6" stroke="#000000" stroke-width="1.5"/><text x="2739" y="2368" text-anchor="middle" dominant-baseline="middle" font-size="20" font-weight="700" fill="#000000" font-family="Segoe UI, Helvetica Neue, Arial, sans-serif">xsd:string</text><polygon points="2387,2561 2573,2561 2559,2621 2373,2621" fill="#b6e6b6" stroke="#000000" stroke-width="1.5"/><text x="2473" y="2591" text-anchor="middle" dominant-baseline="middle" font-size="20" font-weight="700" fill="#000000" font-family="Segoe UI, Helvetica Neue, Arial, sans-serif">xsd:string</text><polygon points="2100,2704 2286,2704 2272,2764 2086,2764" fill="#b6e6b6" stroke="#000000" stroke-width="1.5"/><text x="2186" y="2734" text-anchor="middle" dominant-baseline="middle" font-size="20" font-weight="700" fill="#000000" font-family="Segoe UI, Helvetica Neue, Arial, sans-serif">xsd:gYear</text><polygon points="1787,2779 1973,2779 1959,2839 1773,2839" fill="#b6e6b6" stroke="#000000" stroke-width="1.5"/><text x="1873" y="2809" text-anchor="middle" dominant-baseline="middle" font-size="20" font-weight="700" fill="#000000" font-family="Segoe UI, Helvetica Neue, Arial, sans-serif">xsd:string</text><polygon points="1441,2779 1627,2779 1613,2839 1427,2839" fill="#b6e6b6" stroke="#000000" stroke-width="1.5"/><text x="1527" y="2809" text-anchor="middle" dominant-baseline="middle" font-size="20" font-weight="700" fill="#000000" font-family="Segoe UI, Helvetica Neue, Arial, sans-serif">xsd:string</text><polygon points="1231,2737 1417,2737 1403,2797 1217,2797" fill="#b6e6b6" stroke="#000000" stroke-width="1.5"/><text x="1317" y="2767" text-anchor="middle" dominant-baseline="middle" font-size="20" font-weight="700" fill="#000000" font-family="Segoe UI, Helvetica Neue, Arial, sans-serif">xsd:string</text><polygon points="1029,2664 1215,2664 1201,2724 1015,2724" fill="#b6e6b6" stroke="#000000" stroke-width="1.5"/><text x="1115" y="2694" text-anchor="middle" dominant-baseline="middle" font-size="20" font-weight="700" fill="#000000" font-family="Segoe UI, Helvetica Neue, Arial, sans-serif">xsd:string</text><polygon points="841,2561 1027,2561 1013,2621 827,2621" fill="#b6e6b6" stroke="#000000" stroke-width="1.5"/><text x="927" y="2591" text-anchor="middle" dominant-baseline="middle" font-size="20" font-weight="700" fill="#000000" font-family="Segoe UI, Helvetica Neue, Arial, sans-serif">xsd:string</text><polygon points="575,2338 761,2338 747,2398 561,2398" fill="#b6e6b6" stroke="#000000" stroke-width="1.5"/><text x="661" y="2368" text-anchor="middle" dominant-baseline="middle" font-size="20" font-weight="700" fill="#000000" font-family="Segoe UI, Helvetica Neue, Arial, sans-serif">xsd:string</text><polygon points="364,2050 550,2050 536,2110 350,2110" fill="#b6e6b6" stroke="#000000" stroke-width="1.5"/><text x="450" y="2080" text-anchor="middle" dominant-baseline="middle" font-size="20" font-weight="700" fill="#000000" font-family="Segoe UI, Helvetica Neue, Arial, sans-serif">xsd:string</text><polygon points="256,1785 442,1785 428,1845 242,1845" fill="#b6e6b6" stroke="#000000" stroke-width="1.5"/><text x="342" y="1815" text-anchor="middle" dominant-baseline="middle" font-size="20" font-weight="700" fill="#000000" font-family="Segoe UI, Helvetica Neue, Arial, sans-serif">xsd:string</text><polygon points="196,1444 382,1444 368,1504 182,1504" fill="#b6e6b6" stroke="#000000" stroke-width="1.5"/><text x="282" y="1474" text-anchor="middle" dominant-baseline="middle" font-size="20" font-weight="700" fill="#000000" font-family="Segoe UI, Helvetica Neue, Arial, sans-serif">xsd:string</text><polygon points="201,1230 387,1230 373,1290 187,1290" fill="#b6e6b6" stroke="#000000" stroke-width="1.5"/><text x="287" y="1260" text-anchor="middle" dominant-baseline="middle" font-size="20" font-weight="700" fill="#000000" font-family="Segoe UI, Helvetica Neue, Arial, sans-serif">xsd:gYear</text><polygon points="238,1018 424,1018 410,1078 224,1078" fill="#b6e6b6" stroke="#000000" stroke-width="1.5"/><text x="324" y="1048" text-anchor="middle" dominant-baseline="middle" font-size="20" font-weight="700" fill="#000000" font-family="Segoe UI, Helvetica Neue, Arial, sans-serif">xsd:string</text><polygon points="307,815 493,815 479,875 293,875" fill="#b6e6b6" stroke="#000000" stroke-width="1.5"/><text x="393" y="845" text-anchor="middle" dominant-baseline="middle" font-size="20" font-weight="700" fill="#000000" font-family="Segoe UI, Helvetica Neue, Arial, sans-serif">xsd:string</text><polygon points="480,515 666,515 652,575 466,575" fill="#b6e6b6" stroke="#000000" stroke-width="1.5"/><text x="566" y="545" text-anchor="middle" dominant-baseline="middle" font-size="20" font-weight="700" fill="#000000" font-family="Segoe UI, Helvetica Neue, Arial, sans-serif">xsd:string</text><polygon points="701,282 887,282 873,342 687,342" fill="#b6e6b6" stroke="#000000" stroke-width="1.5"/><text x="787" y="312" text-anchor="middle" dominant-baseline="middle" font-size="20" font-weight="700" fill="#000000" font-family="Segoe UI, Helvetica Neue, Arial, sans-serif">xsd:gYear</text><polygon points="969,105 1155,105 1141,165 955,165" fill="#b6e6b6" stroke="#000000" stroke-width="1.5"/><text x="1055" y="135" text-anchor="middle" dominant-baseline="middle" font-size="20" font-weight="700" fill="#000000" font-family="Segoe UI, Helvetica Neue, Arial, sans-serif">xsd:string</text><rect x="1152" y="247" width="300" height="110" rx="8" fill="#dae8fc" stroke="#6c8ebf" stroke-width="2"/><text x="1152" y="280" text-anchor="start" dominant-baseline="middle" font-size="18" font-weight="400" fill="#1a3f8c" font-family="Segoe UI, Helvetica Neue, Arial, sans-serif">&lt;div&gt;Self references:&lt;/div&gt;ninja:isVassalOf</text><text x="1152" y="302" text-anchor="start" dominant-baseline="middle" font-size="18" font-weight="400" fill="#1a3f8c" font-family="Segoe UI, Helvetica Neue, Arial, sans-serif">rdfs:subPropertyOf&lt;div&gt;</text><text x="1152" y="324" text-anchor="start" dominant-baseline="middle" font-size="18" font-weight="400" fill="#1a3f8c" font-family="Segoe UI, Helvetica Neue, Arial, sans-serif">&lt;/div&gt;</text><rect x="-420" y="-420" width="420" height="330" rx="8" fill="none" stroke="#333333" stroke-width="2"/><text x="-400" y="-385" text-anchor="start" dominant-baseline="middle" font-size="22" font-weight="700" fill="#1a1a1a" font-family="Segoe UI, Helvetica Neue, Arial, sans-serif">Conceptual Model (Graffoo notation)</text><rect x="-400" y="-350" width="180" height="55" rx="8" fill="#ffff99" stroke="#000000" stroke-width="2"/><text x="-310" y="-322" text-anchor="middle" dominant-baseline="middle" font-size="30" font-weight="700" fill="#000000" font-family="Segoe UI, Helvetica Neue, Arial, sans-serif">Class</text><polygon points="-386,-280 -220,-280 -234,-230 -400,-230" fill="#b6e6b6" stroke="#000000" stroke-width="1.5"/><text x="-310" y="-255" text-anchor="middle" dominant-baseline="middle" font-size="20" font-weight="700" fill="#000000" font-family="Segoe UI, Helvetica Neue, Arial, sans-serif">Datatype</text><text x="-400" y="-200" text-anchor="start" dominant-baseline="middle" font-size="22" font-weight="700" fill="#1a1a1a" font-family="Segoe UI, Helvetica Neue, Arial, sans-serif">&amp;#8212; Object property (blue)</text><text x="-400" y="-160" text-anchor="start" dominant-baseline="middle" font-size="22" font-weight="700" fill="#1a1a1a" font-family="Segoe UI, Helvetica Neue, Arial, sans-serif">&amp;#8212; Data property (green)</text><text x="-400" y="-120" text-anchor="start" dominant-baseline="middle" font-size="22" font-weight="700" fill="#1a1a1a" font-family="Segoe UI, Helvetica Neue, Arial, sans-serif">&amp;#8212; Class relation (black)</text></svg>