<svg xmlns="http://www.w3.org/2000/svg" viewBox="0 0 3527 2879" font-family="Segoe UI, Helvetica Neue, Arial, sans-serif" role="img" aria-label="Conceptual model: classes and properties in the Ninja RDF graph"><rect width="3527" height="2879" fill="#fbfaf7"/><defs>
  <marker id="arrow-block" viewBox="0 0 10 10" refX="9" refY="5" markerWidth="7" markerHeight="7" orient="auto-start-reverse">
    <path d="M0,0 L10,5 L0,10 z" fill="#444444"/>
  </marker>
  <marker id="arrow-open" viewBox="0 0 10 10" refX="9" refY="5" markerWidth="7" markerHeight="7" orient="auto-start-reverse">
    <path d="M1,1 L9,5 L1,9" fill="none" stroke="#82b366" stroke-width="1.6"/>
  </marker>
</defs><line x1="3047" y1="2565" x2="2473" y2="1940" stroke="#000000" stroke-width="1.5" marker-end="url(#arrow-block)"/><rect x="2660" y="2238" width="200" height="30" fill="#ffffff" fill-opacity="0.92"/><text x="2760" y="2259" text-anchor="middle" font-size="20" fill="#000000" font-family="Segoe UI, Helvetica Neue, Arial, sans-serif">rdfs:subClassOf</text><line x1="3079" y1="1525" x2="2473" y2="1940" stroke="#000000" stroke-width="1.5" marker-end="url(#arrow-block)"/><rect x="2676" y="1718" width="200" height="30" fill="#ffffff" fill-opacity="0.92"/><text x="2776" y="1739" text-anchor="middle" font-size="20" fill="#000000" font-family="Segoe UI, Helvetica Neue, Arial, sans-serif">rdfs:subClassOf</text><line x1="1761" y1="472" x2="1381" y2="16" stroke="#2d8a3e" stroke-width="1.5" marker-end="url(#arrow-open)"/><rect x="1495" y="229" width="152" height="30" fill="#ffffff" fill-opacity="0.92"/><text x="1571" y="250" text-anchor="middle" font-size="20" fill="#1f5c2b" font-family="Segoe UI, Helvetica Neue, Arial, sans-serif">schema:name</text><line x1="1761" y1="472" x2="2019" y2="16" stroke="#2d8a3e" stroke-width="1.5" marker-end="url(#arrow-open)"/><rect x="1790" y="229" width="200" height="30" fill="#ffffff" fill-opacity="0.92"/><text x="1890" y="250" text-anchor="middle" font-size="20" fill="#1f5c2b" font-family="Segoe UI, Helvetica Neue, Arial, sans-serif">dct:description</text><line x1="2905" y1="720" x2="2473" y2="372" stroke="#2d8a3e" stroke-width="1.5" marker-end="url(#arrow-open)"/><rect x="2613" y="531" width="152" height="30" fill="#ffffff" fill-opacity="0.92"/><text x="2689" y="552" text-anchor="middle" font-size="20" fill="#1f5c2b" font-family="Segoe UI, Helvetica Neue, Arial, sans-serif">schema:name</text><line x1="2905" y1="720" x2="2813" y2="355" stroke="#2d8a3e" stroke-width="1.5" marker-end="url(#arrow-open)"/><rect x="2801" y="522" width="116" height="30" fill="#ffffff" fill-opacity="0.92"/><text x="2859" y="544" text-anchor="middle" font-size="20" fill="#1f5c2b" font-family="Segoe UI, Helvetica Neue, Arial, sans-serif">dct:date</text><line x1="2905" y1="720" x2="3079" y2="387" stroke="#2d8a3e" stroke-width="1.5" marker-end="url(#arrow-open)"/><rect x="2892" y="538" width="200" height="30" fill="#ffffff" fill-opacity="0.92"/><text x="2992" y="560" text-anchor="middle" font-size="20" fill="#1f5c2b" font-family="Segoe UI, Helvetica Neue, Arial, sans-serif">dct:description</text><line x1="2450" y1="1113" x2="3180" y2="1005" stroke="#2d8a3e" stroke-width="1.5" marker-end="url(#arrow-open)"/><rect x="2739" y="1044" width="152" height="30" fill="#ffffff" fill-opacity="0.92"/><text x="2815" y="1065" text-anchor="middle" font-size="20" fill="#1f5c2b" font-family="Segoe UI, Helvetica Neue, Arial, sans-serif">schema:name</text><line x1="2450" y1="1113" x2="3387" y2="1330" stroke="#2d8a3e" stroke-width="1.5" marker-end="url(#arrow-open)"/><rect x="2818" y="1206" width="200" height="30" fill="#ffffff" fill-opacity="0.92"/><text x="2918" y="1228" text-anchor="middle" font-size="20" fill="#1f5c2b" font-family="Segoe UI, Helvetica Neue, Arial, sans-serif">dct:description</text><line x1="2473" y1="1940" x2="3058" y2="1815" stroke="#2d8a3e" stroke-width="1.5" marker-end="url(#arrow-open)"/><rect x="2690" y="1862" width="152" height="30" fill="#ffffff" fill-opacity="0.92"/><text x="2766" y="1884" text-anchor="middle" font-size="20" fill="#1f5c2b" font-family="Segoe UI, Helvetica Neue, Arial, sans-serif">schema:name</text><line x1="2473" y1="1940" x2="2930" y2="2110" stroke="#2d8a3e" stroke-width="1.5" marker-end="url(#arrow-open)"/><rect x="2644" y="2010" width="116" height="30" fill="#ffffff" fill-opacity="0.92"/><text x="2702" y="2031" text-anchor="middle" font-size="20" fill="#1f5c2b" font-family="Segoe UI, Helvetica Neue, Arial, sans-serif">dct:date</text><line x1="2473" y1="1940" x2="2739" y2="2368" stroke="#2d8a3e" stroke-width="1.5" marker-end="url(#arrow-open)"/><rect x="2506" y="2139" width="200" height="30" fill="#ffffff" fill-opacity="0.92"/><text x="2606" y="2160" text-anchor="middle" font-size="20" fill="#1f5c2b" font-family="Segoe UI, Helvetica Neue, Arial, sans-serif">dct:description</text><line x1="2008" y1="2246" x2="2473" y2="2591" stroke="#2d8a3e" stroke-width="1.5" marker-end="url(#arrow-open)"/><rect x="2164" y="2404" width="152" height="30" fill="#ffffff" fill-opacity="0.92"/><text x="2240" y="2425" text-anchor="middle" font-size="20" fill="#1f5c2b" font-family="Segoe UI, Helvetica Neue, Arial, sans-serif">schema:name</text><line x1="2008" y1="2246" x2="2186" y2="2734" stroke="#2d8a3e" stroke-width="1.5" marker-end="url(#arrow-open)"/><rect x="1973" y="2475" width="248" height="30" fill="#ffffff" fill-opacity="0.92"/><text x="2097" y="2496" text-anchor="middle" font-size="20" fill="#1f5c2b" font-family="Segoe UI, Helvetica Neue, Arial, sans-serif">schema:foundingDate</text><line x1="2008" y1="2246" x2="1873" y2="2809" stroke="#2d8a3e" stroke-width="1.5" marker-end="url(#arrow-open)"/><rect x="1840" y="2512" width="200" height="30" fill="#ffffff" fill-opacity="0.92"/><text x="1940" y="2534" text-anchor="middle" font-size="20" fill="#1f5c2b" font-family="Segoe UI, Helvetica Neue, Arial, sans-serif">dct:description</text><line x1="1392" y1="2246" x2="1527" y2="2809" stroke="#2d8a3e" stroke-width="1.5" marker-end="url(#arrow-open)"/><rect x="1384" y="2512" width="152" height="30" fill="#ffffff" fill-opacity="0.92"/><text x="1460" y="2534" text-anchor="middle" font-size="20" fill="#1f5c2b" font-family="Segoe UI, Helvetica Neue, Arial, sans-serif">schema:name</text><line x1="1392" y1="2246" x2="1317" y2="2767" stroke="#2d8a3e" stroke-width="1.5" marker-end="url(#arrow-open)"/><rect x="1230" y="2492" width="248" height="30" fill="#ffffff" fill-opacity="0.92"/><text x="1354" y="2513" text-anchor="middle" font-size="20" fill="#1f5c2b" font-family="Segoe UI, Helvetica Neue, Arial, sans-serif">crm:P45_consists_of</text><line x1="1392" y1="2246" x2="1115" y2="2694" stroke="#2d8a3e" stroke-width="1.5" marker-end="url(#arrow-open)"/><rect x="1118" y="2455" width="272" height="30" fill="#ffffff" fill-opacity="0.92"/><text x="1254" y="2476" text-anchor="middle" font-size="20" fill="#1f5c2b" font-family="Segoe UI, Helvetica Neue, Arial, sans-serif">crm:P43_has_dimension</text><line x1="1392" y1="2246" x2="927" y2="2591" stroke="#2d8a3e" stroke-width="1.5" marker-end="url(#arrow-open)"/><rect x="1060" y="2404" width="200" height="30" fill="#ffffff" fill-opacity="0.92"/><text x="1160" y="2425" text-anchor="middle" font-size="20" fill="#1f5c2b" font-family="Segoe UI, Helvetica Neue, Arial, sans-serif">dct:description</text><line x1="921" y1="1850" x2="661" y2="2368" stroke="#2d8a3e" stroke-width="1.5" marker-end="url(#arrow-open)"/><rect x="715" y="2094" width="152" height="30" fill="#ffffff" fill-opacity="0.92"/><text x="791" y="2115" text-anchor="middle" font-size="20" fill="#1f5c2b" font-family="Segoe UI, Helvetica Neue, Arial, sans-serif">schema:name</text><line x1="921" y1="1850" x2="450" y2="2080" stroke="#2d8a3e" stroke-width="1.5" marker-end="url(#arrow-open)"/><rect x="598" y="1950" width="176" height="30" fill="#ffffff" fill-opacity="0.92"/><text x="686" y="1971" text-anchor="middle" font-size="20" fill="#1f5c2b" font-family="Segoe UI, Helvetica Neue, Arial, sans-serif">schema:author</text><line x1="921" y1="1850" x2="342" y2="1815" stroke="#2d8a3e" stroke-width="1.5" marker-end="url(#arrow-open)"/><rect x="532" y="1818" width="200" height="30" fill="#ffffff" fill-opacity="0.92"/><text x="632" y="1839" text-anchor="middle" font-size="20" fill="#1f5c2b" font-family="Segoe UI, Helvetica Neue, Arial, sans-serif">dct:description</text><line x1="814" y1="1244" x2="282" y2="1474" stroke="#2d8a3e" stroke-width="1.5" marker-end="url(#arrow-open)"/><rect x="472" y="1344" width="152" height="30" fill="#ffffff" fill-opacity="0.92"/><text x="548" y="1365" text-anchor="middle" font-size="20" fill="#1f5c2b" font-family="Segoe UI, Helvetica Neue, Arial, sans-serif">schema:name</text><line x1="814" y1="1244" x2="287" y2="1260" stroke="#2d8a3e" stroke-width="1.5" marker-end="url(#arrow-open)"/><rect x="480" y="1237" width="140" height="30" fill="#ffffff" fill-opacity="0.92"/><text x="550" y="1258" text-anchor="middle" font-size="20" fill="#1f5c2b" font-family="Segoe UI, Helvetica Neue, Arial, sans-serif">dct:issued</text><line x1="814" y1="1244" x2="324" y2="1048" stroke="#2d8a3e" stroke-width="1.5" marker-end="url(#arrow-open)"/><rect x="487" y="1131" width="164" height="30" fill="#ffffff" fill-opacity="0.92"/><text x="569" y="1152" text-anchor="middle" font-size="20" fill="#1f5c2b" font-family="Segoe UI, Helvetica Neue, Arial, sans-serif">schema:genre</text><line x1="814" y1="1244" x2="393" y2="845" stroke="#2d8a3e" stroke-width="1.5" marker-end="url(#arrow-open)"/><rect x="498" y="1030" width="212" height="30" fill="#ffffff" fill-opacity="0.92"/><text x="604" y="1051" text-anchor="middle" font-size="20" fill="#1f5c2b" font-family="Segoe UI, Helvetica Neue, Arial, sans-serif">schema:publisher</text><line x1="1121" y1="711" x2="566" y2="545" stroke="#2d8a3e" stroke-width="1.5" marker-end="url(#arrow-open)"/><rect x="768" y="613" width="152" height="30" fill="#ffffff" fill-opacity="0.92"/><text x="844" y="634" text-anchor="middle" font-size="20" fill="#1f5c2b" font-family="Segoe UI, Helvetica Neue, Arial, sans-serif">schema:name</text><line x1="1121" y1="711" x2="787" y2="312" stroke="#2d8a3e" stroke-width="1.5" marker-end="url(#arrow-open)"/><rect x="896" y="496" width="116" height="30" fill="#ffffff" fill-opacity="0.92"/><text x="954" y="518" text-anchor="middle" font-size="20" fill="#1f5c2b" font-family="Segoe UI, Helvetica Neue, Arial, sans-serif">dct:date</text><line x1="1121" y1="711" x2="1055" y2="135" stroke="#2d8a3e" stroke-width="1.5" marker-end="url(#arrow-open)"/><rect x="988" y="408" width="200" height="30" fill="#ffffff" fill-opacity="0.92"/><text x="1088" y="429" text-anchor="middle" font-size="20" fill="#1f5c2b" font-family="Segoe UI, Helvetica Neue, Arial, sans-serif">dct:description</text><line x1="1761" y1="472" x2="2905" y2="720" stroke="#1a56db" stroke-width="1.5" marker-end="url(#arrow-block)"/><rect x="2058" y="580" width="550" height="33" fill="#ffffff" fill-opacity="0.92"/><text x="2333" y="603" text-anchor="middle" font-size="22" fill="#1a3f8c" font-family="Segoe UI, Helvetica Neue, Arial, sans-serif">crm:P107i_is_current_or_former_member_of</text><line x1="1761" y1="472" x2="2450" y2="1113" stroke="#1a56db" stroke-width="1.5" marker-end="url(#arrow-block)"/><rect x="1943" y="776" width="326" height="33" fill="#ffffff" fill-opacity="0.92"/><text x="2106" y="800" text-anchor="middle" font-size="22" fill="#1a3f8c" font-family="Segoe UI, Helvetica Neue, Arial, sans-serif">ninja:embodiesArchetype</text><line x1="1761" y1="472" x2="2473" y2="1940" stroke="#1a56db" stroke-width="1.5" marker-end="url(#arrow-block)"/><rect x="1981" y="1190" width="273" height="33" fill="#ffffff" fill-opacity="0.92"/><text x="2117" y="1213" text-anchor="middle" font-size="22" fill="#1a3f8c" font-family="Segoe UI, Helvetica Neue, Arial, sans-serif">schema:homeLocation</text><line x1="1761" y1="472" x2="2450" y2="1113" stroke="#1a56db" stroke-width="1.5" marker-end="url(#arrow-block)"/><rect x="1982" y="776" width="246" height="33" fill="#ffffff" fill-opacity="0.92"/><text x="2106" y="800" text-anchor="middle" font-size="22" fill="#1a3f8c" font-family="Segoe UI, Helvetica Neue, Arial, sans-serif">schema:knowsAbout</text><line x1="2905" y1="720" x2="2450" y2="1113" stroke="#1a56db" stroke-width="1.5" marker-end="url(#arrow-block)"/><rect x="2554" y="900" width="246" height="33" fill="#ffffff" fill-opacity="0.92"/><text x="2678" y="924" text-anchor="middle" font-size="22" fill="#1a3f8c" font-family="Segoe UI, Helvetica Neue, Arial, sans-serif">schema:knowsAbout</text><line x1="2905" y1="720" x2="2473" y2="1940" stroke="#1a56db" stroke-width="1.5" marker-end="url(#arrow-block)"/><rect x="2526" y="1314" width="326" height="33" fill="#ffffff" fill-opacity="0.92"/><text x="2689" y="1337" text-anchor="middle" font-size="22" fill="#1a3f8c" font-family="Segoe UI, Helvetica Neue, Arial, sans-serif">schema:foundingLocation</text><line x1="921" y1="1850" x2="2450" y2="1113" stroke="#1a56db" stroke-width="1.5" marker-end="url(#arrow-block)"/><rect x="1602" y="1465" width="167" height="33" fill="#ffffff" fill-opacity="0.92"/><text x="1686" y="1489" text-anchor="middle" font-size="22" fill="#1a3f8c" font-family="Segoe UI, Helvetica Neue, Arial, sans-serif">dct:subject</text><line x1="921" y1="1850" x2="2905" y2="720" stroke="#1a56db" stroke-width="1.5" marker-end="url(#arrow-block)"/><rect x="1730" y="1268" width="365" height="33" fill="#ffffff" fill-opacity="0.92"/><text x="1913" y="1292" text-anchor="middle" font-size="22" fill="#1a3f8c" font-family="Segoe UI, Helvetica Neue, Arial, sans-serif">ninja:preservesKnowledgeOf</text><line x1="2008" y1="2246" x2="2473" y2="1940" stroke="#1a56db" stroke-width="1.5" marker-end="url(#arrow-block)"/><rect x="2078" y="2076" width="326" height="33" fill="#ffffff" fill-opacity="0.92"/><text x="2240" y="2100" text-anchor="middle" font-size="22" fill="#1a3f8c" font-family="Segoe UI, Helvetica Neue, Arial, sans-serif">schema:containedInPlace</text><line x1="2008" y1="2246" x2="2450" y2="1113" stroke="#1a56db" stroke-width="1.5" marker-end="url(#arrow-block)"/><rect x="2145" y="1663" width="167" height="33" fill="#ffffff" fill-opacity="0.92"/><text x="2229" y="1687" text-anchor="middle" font-size="22" fill="#1a3f8c" font-family="Segoe UI, Helvetica Neue, Arial, sans-serif">dct:subject</text><line x1="2008" y1="2246" x2="1392" y2="2246" stroke="#1a56db" stroke-width="1.5" marker-end="url(#arrow-block)"/><rect x="1564" y="2213" width="273" height="66" fill="#ffffff" fill-opacity="0.92"/><text x="1700" y="2239" text-anchor="middle" font-size="22" fill="#1a3f8c" font-family="Segoe UI, Helvetica Neue, Arial, sans-serif">crm:P50i_is_current</text><text x="1700" y="2267" text-anchor="middle" font-size="22" fill="#1a3f8c" font-family="Segoe UI, Helvetica Neue, Arial, sans-serif">_keeper_of</text><line x1="1392" y1="2246" x2="2450" y2="1113" stroke="#1a56db" stroke-width="1.5" marker-end="url(#arrow-block)"/><rect x="1705" y="1646" width="431" height="66" fill="#ffffff" fill-opacity="0.92"/><text x="1921" y="1673" text-anchor="middle" font-size="22" fill="#1a3f8c" font-family="Segoe UI, Helvetica Neue, Arial, sans-serif">ninja:isAssociatedWithArchetype</text><text x="1921" y="1700" text-anchor="middle" font-size="22" fill="#1a3f8c" font-family="Segoe UI, Helvetica Neue, Arial, sans-serif">ninja:isToolOfDiscipline</text><line x1="814" y1="1244" x2="2450" y2="1113" stroke="#1a56db" stroke-width="1.5" marker-end="url(#arrow-block)"/><rect x="1542" y="1162" width="180" height="33" fill="#ffffff" fill-opacity="0.92"/><text x="1632" y="1186" text-anchor="middle" font-size="22" fill="#1a3f8c" font-family="Segoe UI, Helvetica Neue, Arial, sans-serif">foaf:depicts</text><line x1="1121" y1="711" x2="1761" y2="472" stroke="#1a56db" stroke-width="1.5" marker-end="url(#arrow-block)"/><rect x="1278" y="575" width="326" height="33" fill="#ffffff" fill-opacity="0.92"/><text x="1441" y="599" text-anchor="middle" font-size="22" fill="#1a3f8c" font-family="Segoe UI, Helvetica Neue, Arial, sans-serif">crm:P11_had_participant</text><line x1="1121" y1="711" x2="2450" y2="1113" stroke="#1a56db" stroke-width="1.5" marker-end="url(#arrow-block)"/><rect x="1596" y="896" width="378" height="33" fill="#ffffff" fill-opacity="0.92"/><text x="1786" y="919" text-anchor="middle" font-size="22" fill="#1a3f8c" font-family="Segoe UI, Helvetica Neue, Arial, sans-serif">ninja:exemplifiesDiscipline</text><line x1="1121" y1="711" x2="2473" y2="1940" stroke="#1a56db" stroke-width="1.5" marker-end="url(#arrow-block)"/><rect x="1687" y="1309" width="220" height="33" fill="#ffffff" fill-opacity="0.92"/><text x="1797" y="1333" text-anchor="middle" font-size="22" fill="#1a3f8c" font-family="Segoe UI, Helvetica Neue, Arial, sans-serif">schema:location</text><line x1="1761" y1="472" x2="2473" y2="1940" stroke="#1a56db" stroke-width="1.5" marker-end="url(#arrow-block)"/><rect x="1994" y="1190" width="246" height="33" fill="#ffffff" fill-opacity="0.92"/><text x="2117" y="1213" text-anchor="middle" font-size="22" fill="#1a3f8c" font-family="Segoe UI, Helvetica Neue, Arial, sans-serif">schema:birthPlace</text><path d="M 2713 1868 C 2881 1868, 2881 1925, 2713 1925" fill="none" stroke="#1a56db" stroke-width="1.5" marker-end="url(#arrow-block)"/><rect x="2764" y="1880" width="233" height="33" fill="#ffffff" fill-opacity="0.92"/><text x="2881" y="1903" text-anchor="middle" font-size="22" fill="#1a3f8c" font-family="Segoe UI, Helvetica Neue, Arial, sans-serif">dct:isReplacedBy</text><path d="M 2713 1955 C 2881 1955, 2881 2012, 2713 2012" fill="none" stroke="#1a56db" stroke-width="1.5" marker-end="url(#arrow-block)"/><rect x="2718" y="1967" width="326" height="33" fill="#ffffff" fill-opacity="0.92"/><text x="2881" y="1991" text-anchor="middle" font-size="22" fill="#1a3f8c" font-family="Segoe UI, Helvetica Neue, Arial, sans-serif">schema:containedInPlace</text><line x1="814" y1="1244" x2="2905" y2="720" stroke="#1a56db" stroke-width="1.5" marker-end="url(#arrow-block)"/><rect x="1782" y="966" width="154" height="33" fill="#ffffff" fill-opacity="0.92"/><text x="1860" y="989" text-anchor="middle" font-size="22" fill="#1a3f8c" font-family="Segoe UI, Helvetica Neue, Arial, sans-serif">foaf:maker</text><line x1="814" y1="1244" x2="2450" y2="1113" stroke="#1a56db" stroke-width="1.5" marker-end="url(#arrow-block)"/><rect x="1548" y="1162" width="167" height="33" fill="#ffffff" fill-opacity="0.92"/><text x="1632" y="1186" text-anchor="middle" font-size="22" fill="#1a3f8c" font-family="Segoe UI, Helvetica Neue, Arial, sans-serif">dct:subject</text><path d="M 2690 1041 C 2858 1041, 2858 1098, 2690 1098" fill="none" stroke="#1a56db" stroke-width="1.5" marker-end="url(#arrow-block)"/><rect x="2768" y="1053" width="180" height="33" fill="#ffffff" fill-opacity="0.92"/><text x="2858" y="1076" text-anchor="middle" font-size="22" fill="#1a3f8c" font-family="Segoe UI, Helvetica Neue, Arial, sans-serif">skos:related</text><path d="M 2001 400 C 2169 400, 2169 457, 2001 457" fill="none" stroke="#1a56db" stroke-width="1.5" marker-end="url(#arrow-block)"/><rect x="2052" y="412" width="233" height="33" fill="#ffffff" fill-opacity="0.92"/><text x="2169" y="435" text-anchor="middle" font-size="22" fill="#1a3f8c" font-family="Segoe UI, Helvetica Neue, Arial, sans-serif">ninja:isVassalOf</text><path d="M 2001 487 C 2169 487, 2169 544, 2001 544" fill="none" stroke="#1a56db" stroke-width="1.5" marker-end="url(#arrow-block)"/><rect x="2052" y="499" width="233" height="33" fill="#ffffff" fill-opacity="0.92"/><text x="2169" y="523" text-anchor="middle" font-size="22" fill="#1a3f8c" font-family="Segoe UI, Helvetica Neue, Arial, sans-serif">dct:isReplacedBy</text><line x1="1302" y1="302" x2="1761" y2="472" stroke="#6c8ebf" stroke-width="1.5" marker-end="url(#arrow-block)"/><rect x="1521" y="377" width="480" height="190" rx="8" fill="#ffff99" stroke="#000000" stroke-width="2"/><text x="1761" y="453" text-anchor="middle" dominant-baseline="middle" font-size="30" font-weight="700" fill="#000000" font-family="Segoe UI, Helvetica Neue, Arial, sans-serif">crm:E21_Person</text><text x="1761" y="491" text-anchor="middle" dominant-baseline="middle" font-size="30" font-weight="700" fill="#000000" font-family="Segoe UI, Helvetica Neue, Arial, sans-serif">+ foaf:Person</text><rect x="2665" y="625" width="480" height="190" rx="8" fill="#ffff99" stroke="#000000" stroke-width="2"/><text x="2905" y="683" text-anchor="middle" dominant-baseline="middle" font-size="30" font-weight="700" fill="#000000" font-family="Segoe UI, Helvetica Neue, Arial, sans-serif">crm:E74_Group</text><text x="2905" y="720" text-anchor="middle" dominant-baseline="middle" font-size="30" font-weight="700" fill="#000000" font-family="Segoe UI, Helvetica Neue, Arial, sans-serif">+ foaf:Organization</text><text x="2905" y="757" text-anchor="middle" dominant-baseline="middle" font-size="30" font-weight="700" fill="#000000" font-family="Segoe UI, Helvetica Neue, Arial, sans-serif">+ schema:Corporation</text><rect x="2210" y="1018" width="480" height="190" rx="8" fill="#ffff99" stroke="#000000" stroke-width="2"/><text x="2450" y="1113" text-anchor="middle" dominant-baseline="middle" font-size="30" font-weight="700" fill="#000000" font-family="Segoe UI, Helvetica Neue, Arial, sans-serif">skos:Concept</text><rect x="2233" y="1845" width="480" height="190" rx="8" fill="#ffff99" stroke="#000000" stroke-width="2"/><text x="2473" y="1940" text-anchor="middle" dominant-baseline="middle" font-size="30" font-weight="700" fill="#000000" font-family="Segoe UI, Helvetica Neue, Arial, sans-serif">schema:Place</text><rect x="2807" y="2470" width="480" height="190" rx="8" fill="#ffff99" stroke="#000000" stroke-width="2"/><text x="3047" y="2565" text-anchor="middle" dominant-baseline="middle" font-size="30" font-weight="700" fill="#000000" font-family="Segoe UI, Helvetica Neue, Arial, sans-serif">schema:AdministrativeArea</text><rect x="2839" y="1430" width="480" height="190" rx="8" fill="#ffff99" stroke="#000000" stroke-width="2"/><text x="3079" y="1506" text-anchor="middle" dominant-baseline="middle" font-size="30" font-weight="700" fill="#000000" font-family="Segoe UI, Helvetica Neue, Arial, sans-serif">schema:LandmarksOrHistorical</text><text x="3079" y="1544" text-anchor="middle" dominant-baseline="middle" font-size="30" font-weight="700" fill="#000000" font-family="Segoe UI, Helvetica Neue, Arial, sans-serif">Buildings</text><rect x="1768" y="2151" width="480" height="190" rx="8" fill="#ffff99" stroke="#000000" stroke-width="2"/><text x="2008" y="2246" text-anchor="middle" dominant-baseline="middle" font-size="30" font-weight="700" fill="#000000" font-family="Segoe UI, Helvetica Neue, Arial, sans-serif">schema:Museum</text><rect x="1152" y="2151" width="480" height="190" rx="8" fill="#ffff99" stroke="#000000" stroke-width="2"/><text x="1392" y="2227" text-anchor="middle" dominant-baseline="middle" font-size="30" font-weight="700" fill="#000000" font-family="Segoe UI, Helvetica Neue, Arial, sans-serif">crm:E22_Human-</text><text x="1392" y="2265" text-anchor="middle" dominant-baseline="middle" font-size="30" font-weight="700" fill="#000000" font-family="Segoe UI, Helvetica Neue, Arial, sans-serif">Made_Object</text><rect x="681" y="1755" width="480" height="190" rx="8" fill="#ffff99" stroke="#000000" stroke-width="2"/><text x="921" y="1850" text-anchor="middle" dominant-baseline="middle" font-size="30" font-weight="700" fill="#000000" font-family="Segoe UI, Helvetica Neue, Arial, sans-serif">schema:Book</text><rect x="574" y="1149" width="480" height="190" rx="8" fill="#ffff99" stroke="#000000" stroke-width="2"/><text x="814" y="1244" text-anchor="middle" dominant-baseline="middle" font-size="30" font-weight="700" fill="#000000" font-family="Segoe UI, Helvetica Neue, Arial, sans-serif">schema:VideoGame</text><rect x="881" y="616" width="480" height="190" rx="8" fill="#ffff99" stroke="#000000" stroke-width="2"/><text x="1121" y="711" text-anchor="middle" dominant-baseline="middle" font-size="30" font-weight="700" fill="#000000" font-family="Segoe UI, Helvetica Neue, Arial, sans-serif">schema:Event</text><polygon points="1295,-14 1481,-14 1467,46 1281,46" fill="#b6e6b6" stroke="#000000" stroke-width="1.5"/><text x="1381" y="16" text-anchor="middle" dominant-baseline="middle" font-size="20" font-weight="700" fill="#000000" font-family="Segoe UI, Helvetica Neue, Arial, sans-serif">xsd:string</text><polygon points="1933,-14 2119,-14 2105,46 1919,46" fill="#b6e6b6" stroke="#000000" stroke-width="1.5"/><text x="2019" y="16" text-anchor="middle" dominant-baseline="middle" font-size="20" font-weight="700" fill="#000000" font-family="Segoe UI, Helvetica Neue, Arial, sans-serif">xsd:string</text><polygon points="2387,342 2573,342 2559,402 2373,402" fill="#b6e6b6" stroke="#000000" stroke-width="1.5"/><text x="2473" y="372" text-anchor="middle" dominant-baseline="middle" font-size="20" font-weight="700" fill="#000000" font-family="Segoe UI, Helvetica Neue, Arial, sans-serif">xsd:string</text><polygon points="2727,325 2913,325 2899,385 2713,385" fill="#b6e6b6" stroke="#000000" stroke-width="1.5"/><text x="2813" y="355" text-anchor="middle" dominant-baseline="middle" font-size="20" font-weight="700" fill="#000000" font-family="Segoe UI, Helvetica Neue, Arial, sans-serif">xsd:gYear</text><polygon points="2993,357 3179,357 3165,417 2979,417" fill="#b6e6b6" stroke="#000000" stroke-width="1.5"/><text x="3079" y="387" text-anchor="middle" dominant-baseline="middle" font-size="20" font-weight="700" fill="#000000" font-family="Segoe UI, Helvetica Neue, Arial, sans-serif">xsd:string</text><polygon points="3094,975 3280,975 3266,1035 3080,1035" fill="#b6e6b6" stroke="#000000" stroke-width="1.5"/><text x="3180" y="1005" text-anchor="middle" dominant-baseline="middle" font-size="20" font-weight="700" fill="#000000" font-family="Segoe UI, Helvetica Neue, Arial, sans-serif">xsd:string</text><polygon points="3301,1300 3487,1300 3473,1360 3287,1360" fill="#b6e6b6" stroke="#000000" stroke-width="1.5"/><text x="3387" y="1330" text-anchor="middle" dominant-baseline="middle" font-size="20" font-weight="700" fill="#000000" font-family="Segoe UI, Helvetica Neue, Arial, sans-serif">xsd:string</text><polygon points="2972,1785 3158,1785 3144,1845 2958,1845" fill="#b6e6b6" stroke="#000000" stroke-width="1.5"/><text x="3058" y="1815" text-anchor="middle" dominant-baseline="middle" font-size="20" font-weight="700" fill="#000000" font-family="Segoe UI, Helvetica Neue, Arial, sans-serif">xsd:string</text><polygon points="2844,2080 3030,2080 3016,2140 2830,2140" fill="#b6e6b6" stroke="#000000" stroke-width="1.5"/><text x="2930" y="2110" text-anchor="middle" dominant-baseline="middle" font-size="20" font-weight="700" fill="#000000" font-family="Segoe UI, Helvetica Neue, Arial, sans-serif">xsd:gYear</text><polygon points="2653,2338 2839,2338 2825,2398 2639,2398" fill="#b6e6b6" stroke="#000000" stroke-width="1.5"/><text x="2739" y="2368" text-anchor="middle" dominant-baseline="middle" font-size="20" font-weight="700" fill="#000000" font-family="Segoe UI, Helvetica Neue, Arial, sans-serif">xsd:string</text><polygon points="2387,2561 2573,2561 2559,2621 2373,2621" fill="#b6e6b6" stroke="#000000" stroke-width="1.5"/><text x="2473" y="2591" text-anchor="middle" dominant-baseline="middle" font-size="20" font-weight="700" fill="#000000" font-family="Segoe UI, Helvetica Neue, Arial, sans-serif">xsd:string</text><polygon points="2100,2704 2286,2704 2272,2764 2086,2764" fill="#b6e6b6" stroke="#000000" stroke-width="1.5"/><text x="2186" y="2734" text-anchor="middle" dominant-baseline="middle" font-size="20" font-weight="700" fill="#000000" font-family="Segoe UI, Helvetica Neue, Arial, sans-serif">xsd:gYear</text><polygon points="1787,2779 1973,2779 1959,2839 1773,2839" fill="#b6e6b6" stroke="#000000" stroke-width="1.5"/><text x="1873" y="2809" text-anchor="middle" dominant-baseline="middle" font-size="20" font-weight="700" fill="#000000" font-family="Segoe UI, Helvetica Neue, Arial, sans-serif">xsd:string</text><polygon points="1441,2779 1627,2779 1613,2839 1427,2839" fill="#b6e6b6" stroke="#000000" stroke-width="1.5"/><text x="1527" y="2809" text-anchor="middle" dominant-baseline="middle" font-size="20" font-weight="700" fill="#000000" font-family="Segoe UI, Helvetica Neue, Arial, sans-serif">xsd:string</text><polygon points="1231,2737 1417,2737 1403,2797 1217,2797" fill="#b6e6b6" stroke="#000000" stroke-width="1.5"/><text x="1317" y="2767" text-anchor="middle" dominant-baseline="middle" font-size="20" font-weight="700" fill="#000000" font-family="Segoe UI, Helvetica Neue, Arial, sans-serif">xsd:string</text><polygon points="1029,2664 1215,2664 1201,2724 1015,2724" fill="#b6e6b6" stroke="#000000" stroke-width="1.5"/><text x="1115" y="2694" text-anchor="middle" dominant-baseline="middle" font-size="20" font-weight="700" fill="#000000" font-family="Segoe UI, Helvetica Neue, Arial, sans-serif">xsd:string</text><polygon points="841,2561 1027,2561 1013,2621 827,2621" fill="#b6e6b6" stroke="#000000" stroke-width="1.5"/><text x="927" y="2591" text-anchor="middle" dominant-baseline="middle" font-size="20" font-weight="700" fill="#000000" font-family="Segoe UI, Helvetica Neue, Arial, sans-serif">xsd:string</text><polygon points="575,2338 761,2338 747,2398 561,2398" fill="#b6e6b6" stroke="#000000" stroke-width="1.5"/><text x="661" y="2368" text-anchor="middle" dominant-baseline="middle" font-size="20" font-weight="700" fill="#000000" font-family="Segoe UI, Helvetica Neue, Arial, sans-serif">xsd:string</text><polygon points="364,2050 550,2050 536,2110 350,2110" fill="#b6e6b6" stroke="#000000" stroke-width="1.5"/><text x="450" y="2080" text-anchor="middle" dominant-baseline="middle" font-size="20" font-weight="700" fill="#000000" font-family="Segoe UI, Helvetica Neue, Arial, sans-serif">xsd:string</text><polygon points="256,1785 442,1785 428,1845 242,1845" fill="#b6e6b6" stroke="#000000" stroke-width="1.5"/><text x="342" y="1815" text-anchor="middle" dominant-baseline="middle" font-size="20" font-weight="700" fill="#000000" font-family="Segoe UI, Helvetica Neue, Arial, sans-serif">xsd:string</text><polygon points="196,1444 382,1444 368,1504 182,1504" fill="#b6e6b6" stroke="#000000" stroke-width="1.5"/><text x="282" y="1474" text-anchor="middle" dominant-baseline="middle" font-size="20" font-weight="700" fill="#000000" font-family="Segoe UI, Helvetica Neue, Arial, sans-serif">xsd:string</text><polygon points="201,1230 387,1230 373,1290 187,1290" fill="#b6e6b6" stroke="#000000" stroke-width="1.5"/><text x="287" y="1260" text-anchor="middle" dominant-baseline="middle" font-size="20" font-weight="700" fill="#000000" font-family="Segoe UI, Helvetica Neue, Arial, sans-serif">xsd:gYear</text><polygon points="238,1018 424,1018 410,1078 224,1078" fill="#b6e6b6" stroke="#000000" stroke-width="1.5"/><text x="324" y="1048" text-anchor="middle" dominant-baseline="middle" font-size="20" font-weight="700" fill="#000000" font-family="Segoe UI, Helvetica Neue, Arial, sans-serif">xsd:string</text><polygon points="307,815 493,815 479,875 293,875" fill="#b6e6b6" stroke="#000000" stroke-width="1.5"/><text x="393" y="845" text-anchor="middle" dominant-baseline="middle" font-size="20" font-weight="700" fill="#000000" font-family="Segoe UI, Helvetica Neue, Arial, sans-serif">xsd:string</text><polygon points="480,515 666,515 652,575 466,575" fill="#b6e6b6" stroke="#000000" stroke-width="1.5"/><text x="566" y="545" text-anchor="middle" dominant-baseline="middle" font-size="20" font-weight="700" fill="#000000" font-family="Segoe UI, Helvetica Neue, Arial, sans-serif">xsd:string</text><polygon points="701,282 887,282 873,342 687,342" fill="#b6e6b6" stroke="#000000" stroke-width="1.5"/><text x="787" y="312" text-anchor="middle" dominant-baseline="middle" font-size="20" font-weight="700" fill="#000000" font-family="Segoe UI, Helvetica Neue, Arial, sans-serif">xsd:gYear</text><polygon points="969,105 1155,105 1141,165 955,165" fill="#b6e6b6" stroke="#000000" stroke-width="1.5"/><text x="1055" y="135" text-anchor="middle" dominant-baseline="middle" font-size="20" font-weight="700" fill="#000000" font-family="Segoe UI, Helvetica Neue, Arial, sans-serif">xsd:string</text><rect x="1152" y="247" width="300" height="110" rx="8" fill="#dae8fc" stroke="#6c8ebf" stroke-width="2"/><text x="1152" y="280" text-anchor="start" dominant-baseline="middle" font-size="18" font-weight="400" fill="#1a3f8c" font-family="Segoe UI, Helvetica Neue, Arial, sans-serif">&lt;div&gt;Self references:&lt;/div&gt;ninja:isVassalOf</text><text x="1152" y="302" text-anchor="start" dominant-baseline="middle" font-size="18" font-weight="400" fill="#1a3f8c" font-family="Segoe UI, Helvetica Neue, Arial, sans-serif">rdfs:subPropertyOf&lt;div&gt;</text><text x="1152" y="324" text-anchor="start" dominant-baseline="middle" font-size="18" font-weight="400" fill="#1a3f8c" font-family="Segoe UI, Helvetica Neue, Arial, sans-serif">&lt;/div&gt;</text><rect x="-420" y="-420" width="420" height="330" rx="8" fill="none" stroke="#333333" stroke-width="2"/><text x="-400" y="-385" text-anchor="start" dominant-baseline="middle" font-size="22" font-weight="700" fill="#1a1a1a" font-family="Segoe UI, Helvetica Neue, Arial, sans-serif">Conceptual Model (Graffoo notation)</text><rect x="-400" y="-350" width="180" height="55" rx="8" fill="#ffff99" stroke="#000000" stroke-width="2"/><text x="-310" y="-322" text-anchor="middle" dominant-baseline="middle" font-size="30" font-weight="700" fill="#000000" font-family="Segoe UI, Helvetica Neue, Arial, sans-serif">Class</text><polygon points="-386,-280 -220,-280 -234,-230 -400,-230" fill="#b6e6b6" stroke="#000000" stroke-width="1.5"/><text x="-310" y="-255" text-anchor="middle" dominant-baseline="middle" font-size="20" font-weight="700" fill="#000000" font-family="Segoe UI, Helvetica Neue, Arial, sans-serif">Datatype</text><text x="-400" y="-200" text-anchor="start" dominant-baseline="middle" font-size="22" font-weight="700" fill="#1a1a1a" font-family="Segoe UI, Helvetica Neue, Arial, sans-serif">&amp;#8212; Object property (blue)</text><text x="-400" y="-160" text-anchor="start" dominant-baseline="middle" font-size="22" font-weight="700" fill="#1a1a1a" font-family="Segoe UI, Helvetica Neue, Arial, sans-serif">&amp;#8212; Data property (green)</text><text x="-400" y="-120" text-anchor="start" dominant-baseline="middle" font-size="22" font-weight="700" fill="#1a1a1a" font-family="Segoe UI, Helvetica Neue, Arial, sans-serif">&amp;#8212; Class relation (black)</text></svg>