<svg xmlns="http://www.w3.org/2000/svg" viewBox="0 0 3320 2879" font-family="Segoe UI, Helvetica Neue, Arial, sans-serif" role="img" aria-label="Conceptual model: classes and properties in the Ninja RDF graph"><rect width="3320" height="2879" fill="#fbfaf7"/><defs>
  <marker id="arrow-block" viewBox="0 0 10 10" refX="9" refY="5" markerWidth="7" markerHeight="7" orient="auto-start-reverse">
    <path d="M0,0 L10,5 L0,10 z" fill="#444444"/>
  </marker>
  <marker id="arrow-open" viewBox="0 0 10 10" refX="9" refY="5" markerWidth="7" markerHeight="7" orient="auto-start-reverse">
    <path d="M1,1 L9,5 L1,9" fill="none" stroke="#82b366" stroke-width="1.6"/>
  </marker>
</defs><line x1="1700" y1="500" x2="1381" y2="16" stroke="#2d8a3e" stroke-width="1.5" marker-end="url(#arrow-open)"/><rect x="1464" y="243" width="152" height="30" fill="#ffffff" fill-opacity="0.92"/><text x="1540" y="264" text-anchor="middle" font-size="20" fill="#1f5c2b" font-family="Segoe UI, Helvetica Neue, Arial, sans-serif">schema:name</text><line x1="1700" y1="500" x2="2019" y2="16" stroke="#2d8a3e" stroke-width="1.5" marker-end="url(#arrow-open)"/><rect x="1760" y="243" width="200" height="30" fill="#ffffff" fill-opacity="0.92"/><text x="1860" y="264" text-anchor="middle" font-size="20" fill="#1f5c2b" font-family="Segoe UI, Helvetica Neue, Arial, sans-serif">dct:description</text><line x1="2279" y1="711" x2="2345" y2="135" stroke="#2d8a3e" stroke-width="1.5" marker-end="url(#arrow-open)"/><rect x="2236" y="408" width="152" height="30" fill="#ffffff" fill-opacity="0.92"/><text x="2312" y="429" text-anchor="middle" font-size="20" fill="#1f5c2b" font-family="Segoe UI, Helvetica Neue, Arial, sans-serif">schema:name</text><line x1="2279" y1="711" x2="2613" y2="312" stroke="#2d8a3e" stroke-width="1.5" marker-end="url(#arrow-open)"/><rect x="2388" y="496" width="116" height="30" fill="#ffffff" fill-opacity="0.92"/><text x="2446" y="518" text-anchor="middle" font-size="20" fill="#1f5c2b" font-family="Segoe UI, Helvetica Neue, Arial, sans-serif">dct:date</text><line x1="2279" y1="711" x2="2834" y2="545" stroke="#2d8a3e" stroke-width="1.5" marker-end="url(#arrow-open)"/><rect x="2456" y="613" width="200" height="30" fill="#ffffff" fill-opacity="0.92"/><text x="2556" y="634" text-anchor="middle" font-size="20" fill="#1f5c2b" font-family="Segoe UI, Helvetica Neue, Arial, sans-serif">dct:description</text><line x1="2586" y1="1244" x2="3098" y2="1153" stroke="#2d8a3e" stroke-width="1.5" marker-end="url(#arrow-open)"/><rect x="2766" y="1184" width="152" height="30" fill="#ffffff" fill-opacity="0.92"/><text x="2842" y="1205" text-anchor="middle" font-size="20" fill="#1f5c2b" font-family="Segoe UI, Helvetica Neue, Arial, sans-serif">schema:name</text><line x1="2586" y1="1244" x2="3180" y2="1310" stroke="#2d8a3e" stroke-width="1.5" marker-end="url(#arrow-open)"/><rect x="2783" y="1262" width="200" height="30" fill="#ffffff" fill-opacity="0.92"/><text x="2883" y="1283" text-anchor="middle" font-size="20" fill="#1f5c2b" font-family="Segoe UI, Helvetica Neue, Arial, sans-serif">dct:description</text><line x1="2541" y1="1967" x2="3058" y2="1815" stroke="#2d8a3e" stroke-width="1.5" marker-end="url(#arrow-open)"/><rect x="2724" y="1876" width="152" height="30" fill="#ffffff" fill-opacity="0.92"/><text x="2800" y="1897" text-anchor="middle" font-size="20" fill="#1f5c2b" font-family="Segoe UI, Helvetica Neue, Arial, sans-serif">schema:name</text><line x1="2541" y1="1967" x2="2930" y2="2110" stroke="#2d8a3e" stroke-width="1.5" marker-end="url(#arrow-open)"/><rect x="2678" y="2024" width="116" height="30" fill="#ffffff" fill-opacity="0.92"/><text x="2736" y="2045" text-anchor="middle" font-size="20" fill="#1f5c2b" font-family="Segoe UI, Helvetica Neue, Arial, sans-serif">dct:date</text><line x1="2541" y1="1967" x2="2739" y2="2368" stroke="#2d8a3e" stroke-width="1.5" marker-end="url(#arrow-open)"/><rect x="2540" y="2152" width="200" height="30" fill="#ffffff" fill-opacity="0.92"/><text x="2640" y="2174" text-anchor="middle" font-size="20" fill="#1f5c2b" font-family="Segoe UI, Helvetica Neue, Arial, sans-serif">dct:description</text><line x1="2008" y1="2246" x2="2473" y2="2591" stroke="#2d8a3e" stroke-width="1.5" marker-end="url(#arrow-open)"/><rect x="2164" y="2404" width="152" height="30" fill="#ffffff" fill-opacity="0.92"/><text x="2240" y="2425" text-anchor="middle" font-size="20" fill="#1f5c2b" font-family="Segoe UI, Helvetica Neue, Arial, sans-serif">schema:name</text><line x1="2008" y1="2246" x2="2186" y2="2734" stroke="#2d8a3e" stroke-width="1.5" marker-end="url(#arrow-open)"/><rect x="1973" y="2475" width="248" height="30" fill="#ffffff" fill-opacity="0.92"/><text x="2097" y="2496" text-anchor="middle" font-size="20" fill="#1f5c2b" font-family="Segoe UI, Helvetica Neue, Arial, sans-serif">schema:foundingDate</text><line x1="2008" y1="2246" x2="1873" y2="2809" stroke="#2d8a3e" stroke-width="1.5" marker-end="url(#arrow-open)"/><rect x="1840" y="2512" width="200" height="30" fill="#ffffff" fill-opacity="0.92"/><text x="1940" y="2534" text-anchor="middle" font-size="20" fill="#1f5c2b" font-family="Segoe UI, Helvetica Neue, Arial, sans-serif">dct:description</text><line x1="1392" y1="2246" x2="1527" y2="2809" stroke="#2d8a3e" stroke-width="1.5" marker-end="url(#arrow-open)"/><rect x="1384" y="2512" width="152" height="30" fill="#ffffff" fill-opacity="0.92"/><text x="1460" y="2534" text-anchor="middle" font-size="20" fill="#1f5c2b" font-family="Segoe UI, Helvetica Neue, Arial, sans-serif">schema:name</text><line x1="1392" y1="2246" x2="1317" y2="2767" stroke="#2d8a3e" stroke-width="1.5" marker-end="url(#arrow-open)"/><rect x="1230" y="2492" width="248" height="30" fill="#ffffff" fill-opacity="0.92"/><text x="1354" y="2513" text-anchor="middle" font-size="20" fill="#1f5c2b" font-family="Segoe UI, Helvetica Neue, Arial, sans-serif">crm:P45_consists_of</text><line x1="1392" y1="2246" x2="1115" y2="2694" stroke="#2d8a3e" stroke-width="1.5" marker-end="url(#arrow-open)"/><rect x="1118" y="2455" width="272" height="30" fill="#ffffff" fill-opacity="0.92"/><text x="1254" y="2476" text-anchor="middle" font-size="20" fill="#1f5c2b" font-family="Segoe UI, Helvetica Neue, Arial, sans-serif">crm:P43_has_dimension</text><line x1="1392" y1="2246" x2="927" y2="2591" stroke="#2d8a3e" stroke-width="1.5" marker-end="url(#arrow-open)"/><rect x="1060" y="2404" width="200" height="30" fill="#ffffff" fill-opacity="0.92"/><text x="1160" y="2425" text-anchor="middle" font-size="20" fill="#1f5c2b" font-family="Segoe UI, Helvetica Neue, Arial, sans-serif">dct:description</text><line x1="921" y1="1850" x2="661" y2="2368" stroke="#2d8a3e" stroke-width="1.5" marker-end="url(#arrow-open)"/><rect x="715" y="2094" width="152" height="30" fill="#ffffff" fill-opacity="0.92"/><text x="791" y="2115" text-anchor="middle" font-size="20" fill="#1f5c2b" font-family="Segoe UI, Helvetica Neue, Arial, sans-serif">schema:name</text><line x1="921" y1="1850" x2="450" y2="2080" stroke="#2d8a3e" stroke-width="1.5" marker-end="url(#arrow-open)"/><rect x="598" y="1950" width="176" height="30" fill="#ffffff" fill-opacity="0.92"/><text x="686" y="1971" text-anchor="middle" font-size="20" fill="#1f5c2b" font-family="Segoe UI, Helvetica Neue, Arial, sans-serif">schema:author</text><line x1="921" y1="1850" x2="342" y2="1815" stroke="#2d8a3e" stroke-width="1.5" marker-end="url(#arrow-open)"/><rect x="532" y="1818" width="200" height="30" fill="#ffffff" fill-opacity="0.92"/><text x="632" y="1839" text-anchor="middle" font-size="20" fill="#1f5c2b" font-family="Segoe UI, Helvetica Neue, Arial, sans-serif">dct:description</text><line x1="814" y1="1244" x2="282" y2="1474" stroke="#2d8a3e" stroke-width="1.5" marker-end="url(#arrow-open)"/><rect x="472" y="1344" width="152" height="30" fill="#ffffff" fill-opacity="0.92"/><text x="548" y="1365" text-anchor="middle" font-size="20" fill="#1f5c2b" font-family="Segoe UI, Helvetica Neue, Arial, sans-serif">schema:name</text><line x1="814" y1="1244" x2="287" y2="1260" stroke="#2d8a3e" stroke-width="1.5" marker-end="url(#arrow-open)"/><rect x="480" y="1237" width="140" height="30" fill="#ffffff" fill-opacity="0.92"/><text x="550" y="1258" text-anchor="middle" font-size="20" fill="#1f5c2b" font-family="Segoe UI, Helvetica Neue, Arial, sans-serif">dct:issued</text><line x1="814" y1="1244" x2="324" y2="1048" stroke="#2d8a3e" stroke-width="1.5" marker-end="url(#arrow-open)"/><rect x="487" y="1131" width="164" height="30" fill="#ffffff" fill-opacity="0.92"/><text x="569" y="1152" text-anchor="middle" font-size="20" fill="#1f5c2b" font-family="Segoe UI, Helvetica Neue, Arial, sans-serif">schema:genre</text><line x1="814" y1="1244" x2="393" y2="845" stroke="#2d8a3e" stroke-width="1.5" marker-end="url(#arrow-open)"/><rect x="498" y="1030" width="212" height="30" fill="#ffffff" fill-opacity="0.92"/><text x="604" y="1051" text-anchor="middle" font-size="20" fill="#1f5c2b" font-family="Segoe UI, Helvetica Neue, Arial, sans-serif">schema:publisher</text><line x1="1121" y1="711" x2="566" y2="545" stroke="#2d8a3e" stroke-width="1.5" marker-end="url(#arrow-open)"/><rect x="768" y="613" width="152" height="30" fill="#ffffff" fill-opacity="0.92"/><text x="844" y="634" text-anchor="middle" font-size="20" fill="#1f5c2b" font-family="Segoe UI, Helvetica Neue, Arial, sans-serif">schema:name</text><line x1="1121" y1="711" x2="787" y2="312" stroke="#2d8a3e" stroke-width="1.5" marker-end="url(#arrow-open)"/><rect x="896" y="496" width="116" height="30" fill="#ffffff" fill-opacity="0.92"/><text x="954" y="518" text-anchor="middle" font-size="20" fill="#1f5c2b" font-family="Segoe UI, Helvetica Neue, Arial, sans-serif">dct:date</text><line x1="1121" y1="711" x2="1055" y2="135" stroke="#2d8a3e" stroke-width="1.5" marker-end="url(#arrow-open)"/><rect x="988" y="408" width="200" height="30" fill="#ffffff" fill-opacity="0.92"/><text x="1088" y="429" text-anchor="middle" font-size="20" fill="#1f5c2b" font-family="Segoe UI, Helvetica Neue, Arial, sans-serif">dct:description</text><line x1="1700" y1="500" x2="2279" y2="711" stroke="#1a56db" stroke-width="1.5" marker-end="url(#arrow-block)"/><rect x="1714" y="589" width="550" height="33" fill="#ffffff" fill-opacity="0.92"/><text x="1990" y="613" text-anchor="middle" font-size="22" fill="#1a3f8c" font-family="Segoe UI, Helvetica Neue, Arial, sans-serif">crm:P107i_is_current_or_former_member_of</text><line x1="1700" y1="500" x2="2586" y2="1244" stroke="#1a56db" stroke-width="1.5" marker-end="url(#arrow-block)"/><rect x="1980" y="856" width="326" height="33" fill="#ffffff" fill-opacity="0.92"/><text x="2143" y="879" text-anchor="middle" font-size="22" fill="#1a3f8c" font-family="Segoe UI, Helvetica Neue, Arial, sans-serif">ninja:embodiesArchetype</text><line x1="1700" y1="500" x2="2541" y2="1967" stroke="#1a56db" stroke-width="1.5" marker-end="url(#arrow-block)"/><rect x="1984" y="1217" width="273" height="33" fill="#ffffff" fill-opacity="0.92"/><text x="2120" y="1241" text-anchor="middle" font-size="22" fill="#1a3f8c" font-family="Segoe UI, Helvetica Neue, Arial, sans-serif">schema:homeLocation</text><line x1="1700" y1="500" x2="2586" y2="1244" stroke="#1a56db" stroke-width="1.5" marker-end="url(#arrow-block)"/><rect x="2020" y="856" width="246" height="33" fill="#ffffff" fill-opacity="0.92"/><text x="2143" y="879" text-anchor="middle" font-size="22" fill="#1a3f8c" font-family="Segoe UI, Helvetica Neue, Arial, sans-serif">schema:knowsAbout</text><line x1="2279" y1="711" x2="2586" y2="1244" stroke="#1a56db" stroke-width="1.5" marker-end="url(#arrow-block)"/><rect x="2309" y="961" width="246" height="33" fill="#ffffff" fill-opacity="0.92"/><text x="2432" y="985" text-anchor="middle" font-size="22" fill="#1a3f8c" font-family="Segoe UI, Helvetica Neue, Arial, sans-serif">schema:knowsAbout</text><line x1="2279" y1="711" x2="2541" y2="1967" stroke="#1a56db" stroke-width="1.5" marker-end="url(#arrow-block)"/><rect x="2326" y="1322" width="167" height="33" fill="#ffffff" fill-opacity="0.92"/><text x="2410" y="1346" text-anchor="middle" font-size="22" fill="#1a3f8c" font-family="Segoe UI, Helvetica Neue, Arial, sans-serif">dct:spatial</text><line x1="921" y1="1850" x2="2586" y2="1244" stroke="#1a56db" stroke-width="1.5" marker-end="url(#arrow-block)"/><rect x="1670" y="1530" width="167" height="33" fill="#ffffff" fill-opacity="0.92"/><text x="1754" y="1554" text-anchor="middle" font-size="22" fill="#1a3f8c" font-family="Segoe UI, Helvetica Neue, Arial, sans-serif">dct:subject</text><line x1="2008" y1="2246" x2="2541" y2="1967" stroke="#1a56db" stroke-width="1.5" marker-end="url(#arrow-block)"/><rect x="2191" y="2090" width="167" height="33" fill="#ffffff" fill-opacity="0.92"/><text x="2274" y="2114" text-anchor="middle" font-size="22" fill="#1a3f8c" font-family="Segoe UI, Helvetica Neue, Arial, sans-serif">dct:spatial</text><line x1="2008" y1="2246" x2="2586" y2="1244" stroke="#1a56db" stroke-width="1.5" marker-end="url(#arrow-block)"/><rect x="2213" y="1728" width="167" height="33" fill="#ffffff" fill-opacity="0.92"/><text x="2297" y="1752" text-anchor="middle" font-size="22" fill="#1a3f8c" font-family="Segoe UI, Helvetica Neue, Arial, sans-serif">dct:subject</text><line x1="2008" y1="2246" x2="1392" y2="2246" stroke="#1a56db" stroke-width="1.5" marker-end="url(#arrow-block)"/><rect x="1610" y="2230" width="180" height="33" fill="#ffffff" fill-opacity="0.92"/><text x="1700" y="2253" text-anchor="middle" font-size="22" fill="#1a3f8c" font-family="Segoe UI, Helvetica Neue, Arial, sans-serif">dct:relation</text><line x1="1392" y1="2246" x2="2586" y2="1244" stroke="#1a56db" stroke-width="1.5" marker-end="url(#arrow-block)"/><rect x="1899" y="1728" width="180" height="33" fill="#ffffff" fill-opacity="0.92"/><text x="1989" y="1752" text-anchor="middle" font-size="22" fill="#1a3f8c" font-family="Segoe UI, Helvetica Neue, Arial, sans-serif">dct:relation</text><line x1="814" y1="1244" x2="2586" y2="1244" stroke="#1a56db" stroke-width="1.5" marker-end="url(#arrow-block)"/><rect x="1610" y="1228" width="180" height="33" fill="#ffffff" fill-opacity="0.92"/><text x="1700" y="1251" text-anchor="middle" font-size="22" fill="#1a3f8c" font-family="Segoe UI, Helvetica Neue, Arial, sans-serif">foaf:depicts</text><line x1="1121" y1="711" x2="1700" y2="500" stroke="#1a56db" stroke-width="1.5" marker-end="url(#arrow-block)"/><rect x="1248" y="589" width="326" height="33" fill="#ffffff" fill-opacity="0.92"/><text x="1410" y="613" text-anchor="middle" font-size="22" fill="#1a3f8c" font-family="Segoe UI, Helvetica Neue, Arial, sans-serif">crm:P11_had_participant</text><line x1="1121" y1="711" x2="2586" y2="1244" stroke="#1a56db" stroke-width="1.5" marker-end="url(#arrow-block)"/><rect x="1763" y="961" width="180" height="33" fill="#ffffff" fill-opacity="0.92"/><text x="1854" y="985" text-anchor="middle" font-size="22" fill="#1a3f8c" font-family="Segoe UI, Helvetica Neue, Arial, sans-serif">dct:relation</text><line x1="1121" y1="711" x2="2541" y2="1967" stroke="#1a56db" stroke-width="1.5" marker-end="url(#arrow-block)"/><rect x="1747" y="1322" width="167" height="33" fill="#ffffff" fill-opacity="0.92"/><text x="1831" y="1346" text-anchor="middle" font-size="22" fill="#1a3f8c" font-family="Segoe UI, Helvetica Neue, Arial, sans-serif">dct:spatial</text><line x1="1700" y1="500" x2="2541" y2="1967" stroke="#1a56db" stroke-width="1.5" marker-end="url(#arrow-block)"/><rect x="1997" y="1217" width="246" height="33" fill="#ffffff" fill-opacity="0.92"/><text x="2120" y="1241" text-anchor="middle" font-size="22" fill="#1a3f8c" font-family="Segoe UI, Helvetica Neue, Arial, sans-serif">schema:birthPlace</text><line x1="2541" y1="1967" x2="2541" y2="1967" stroke="#1a56db" stroke-width="1.5" marker-end="url(#arrow-block)"/><rect x="2424" y="1950" width="233" height="33" fill="#ffffff" fill-opacity="0.92"/><text x="2541" y="1974" text-anchor="middle" font-size="22" fill="#1a3f8c" font-family="Segoe UI, Helvetica Neue, Arial, sans-serif">dct:isReplacedBy</text><line x1="2541" y1="1967" x2="2541" y2="1967" stroke="#1a56db" stroke-width="1.5" marker-end="url(#arrow-block)"/><rect x="2457" y="1950" width="167" height="33" fill="#ffffff" fill-opacity="0.92"/><text x="2541" y="1974" text-anchor="middle" font-size="22" fill="#1a3f8c" font-family="Segoe UI, Helvetica Neue, Arial, sans-serif">dct:spatial</text><line x1="814" y1="1244" x2="2279" y2="711" stroke="#1a56db" stroke-width="1.5" marker-end="url(#arrow-block)"/><rect x="1470" y="961" width="154" height="33" fill="#ffffff" fill-opacity="0.92"/><text x="1546" y="985" text-anchor="middle" font-size="22" fill="#1a3f8c" font-family="Segoe UI, Helvetica Neue, Arial, sans-serif">foaf:maker</text><line x1="814" y1="1244" x2="2586" y2="1244" stroke="#1a56db" stroke-width="1.5" marker-end="url(#arrow-block)"/><rect x="1616" y="1228" width="167" height="33" fill="#ffffff" fill-opacity="0.92"/><text x="1700" y="1251" text-anchor="middle" font-size="22" fill="#1a3f8c" font-family="Segoe UI, Helvetica Neue, Arial, sans-serif">dct:subject</text><line x1="2586" y1="1244" x2="2586" y2="1244" stroke="#1a56db" stroke-width="1.5" marker-end="url(#arrow-block)"/><rect x="2496" y="1228" width="180" height="33" fill="#ffffff" fill-opacity="0.92"/><text x="2586" y="1251" text-anchor="middle" font-size="22" fill="#1a3f8c" font-family="Segoe UI, Helvetica Neue, Arial, sans-serif">skos:related</text><line x1="1700" y1="500" x2="1700" y2="500" stroke="#1a56db" stroke-width="1.5" marker-end="url(#arrow-block)"/><rect x="1583" y="484" width="233" height="33" fill="#ffffff" fill-opacity="0.92"/><text x="1700" y="507" text-anchor="middle" font-size="22" fill="#1a3f8c" font-family="Segoe UI, Helvetica Neue, Arial, sans-serif">ninja:isVassalOf</text><line x1="1700" y1="500" x2="1700" y2="500" stroke="#1a56db" stroke-width="1.5" marker-end="url(#arrow-block)"/><rect x="1583" y="484" width="233" height="33" fill="#ffffff" fill-opacity="0.92"/><text x="1700" y="507" text-anchor="middle" font-size="22" fill="#1a3f8c" font-family="Segoe UI, Helvetica Neue, Arial, sans-serif">dct:isReplacedBy</text><line x1="1302" y1="302" x2="1700" y2="500" stroke="#6c8ebf" stroke-width="1.5" marker-end="url(#arrow-block)"/><rect x="1460" y="405" width="480" height="190" rx="8" fill="#ffff99" stroke="#000000" stroke-width="2"/><text x="1700" y="481" text-anchor="middle" dominant-baseline="middle" font-size="30" font-weight="700" fill="#000000" font-family="Segoe UI, Helvetica Neue, Arial, sans-serif">crm:E21_Person</text><text x="1700" y="519" text-anchor="middle" dominant-baseline="middle" font-size="30" font-weight="700" fill="#000000" font-family="Segoe UI, Helvetica Neue, Arial, sans-serif">+ foaf:Person</text><rect x="2039" y="616" width="480" height="190" rx="8" fill="#ffff99" stroke="#000000" stroke-width="2"/><text x="2279" y="692" text-anchor="middle" dominant-baseline="middle" font-size="30" font-weight="700" fill="#000000" font-family="Segoe UI, Helvetica Neue, Arial, sans-serif">crm:E74_Group</text><text x="2279" y="730" text-anchor="middle" dominant-baseline="middle" font-size="30" font-weight="700" fill="#000000" font-family="Segoe UI, Helvetica Neue, Arial, sans-serif">+ foaf:Organization</text><rect x="2346" y="1149" width="480" height="190" rx="8" fill="#ffff99" stroke="#000000" stroke-width="2"/><text x="2586" y="1244" text-anchor="middle" dominant-baseline="middle" font-size="30" font-weight="700" fill="#000000" font-family="Segoe UI, Helvetica Neue, Arial, sans-serif">skos:Concept</text><rect x="2301" y="1872" width="480" height="190" rx="8" fill="#ffff99" stroke="#000000" stroke-width="2"/><text x="2541" y="1967" text-anchor="middle" dominant-baseline="middle" font-size="30" font-weight="700" fill="#000000" font-family="Segoe UI, Helvetica Neue, Arial, sans-serif">schema:Place</text><rect x="1768" y="2151" width="480" height="190" rx="8" fill="#ffff99" stroke="#000000" stroke-width="2"/><text x="2008" y="2246" text-anchor="middle" dominant-baseline="middle" font-size="30" font-weight="700" fill="#000000" font-family="Segoe UI, Helvetica Neue, Arial, sans-serif">schema:Museum</text><rect x="1152" y="2151" width="480" height="190" rx="8" fill="#ffff99" stroke="#000000" stroke-width="2"/><text x="1392" y="2227" text-anchor="middle" dominant-baseline="middle" font-size="30" font-weight="700" fill="#000000" font-family="Segoe UI, Helvetica Neue, Arial, sans-serif">crm:E22_Human-</text><text x="1392" y="2265" text-anchor="middle" dominant-baseline="middle" font-size="30" font-weight="700" fill="#000000" font-family="Segoe UI, Helvetica Neue, Arial, sans-serif">Made_Object</text><rect x="681" y="1755" width="480" height="190" rx="8" fill="#ffff99" stroke="#000000" stroke-width="2"/><text x="921" y="1850" text-anchor="middle" dominant-baseline="middle" font-size="30" font-weight="700" fill="#000000" font-family="Segoe UI, Helvetica Neue, Arial, sans-serif">schema:Book</text><rect x="574" y="1149" width="480" height="190" rx="8" fill="#ffff99" stroke="#000000" stroke-width="2"/><text x="814" y="1244" text-anchor="middle" dominant-baseline="middle" font-size="30" font-weight="700" fill="#000000" font-family="Segoe UI, Helvetica Neue, Arial, sans-serif">schema:VideoGame</text><rect x="881" y="616" width="480" height="190" rx="8" fill="#ffff99" stroke="#000000" stroke-width="2"/><text x="1121" y="711" text-anchor="middle" dominant-baseline="middle" font-size="30" font-weight="700" fill="#000000" font-family="Segoe UI, Helvetica Neue, Arial, sans-serif">schema:Event</text><polygon points="1295,-14 1481,-14 1467,46 1281,46" fill="#b6e6b6" stroke="#000000" stroke-width="1.5"/><text x="1381" y="16" text-anchor="middle" dominant-baseline="middle" font-size="20" font-weight="700" fill="#000000" font-family="Segoe UI, Helvetica Neue, Arial, sans-serif">xsd:string</text><polygon points="1933,-14 2119,-14 2105,46 1919,46" fill="#b6e6b6" stroke="#000000" stroke-width="1.5"/><text x="2019" y="16" text-anchor="middle" dominant-baseline="middle" font-size="20" font-weight="700" fill="#000000" font-family="Segoe UI, Helvetica Neue, Arial, sans-serif">xsd:string</text><polygon points="2259,105 2445,105 2431,165 2245,165" fill="#b6e6b6" stroke="#000000" stroke-width="1.5"/><text x="2345" y="135" text-anchor="middle" dominant-baseline="middle" font-size="20" font-weight="700" fill="#000000" font-family="Segoe UI, Helvetica Neue, Arial, sans-serif">xsd:string</text><polygon points="2527,282 2713,282 2699,342 2513,342" fill="#b6e6b6" stroke="#000000" stroke-width="1.5"/><text x="2613" y="312" text-anchor="middle" dominant-baseline="middle" font-size="20" font-weight="700" fill="#000000" font-family="Segoe UI, Helvetica Neue, Arial, sans-serif">xsd:gYear</text><polygon points="2748,515 2934,515 2920,575 2734,575" fill="#b6e6b6" stroke="#000000" stroke-width="1.5"/><text x="2834" y="545" text-anchor="middle" dominant-baseline="middle" font-size="20" font-weight="700" fill="#000000" font-family="Segoe UI, Helvetica Neue, Arial, sans-serif">xsd:string</text><polygon points="3012,1123 3198,1123 3184,1183 2998,1183" fill="#b6e6b6" stroke="#000000" stroke-width="1.5"/><text x="3098" y="1153" text-anchor="middle" dominant-baseline="middle" font-size="20" font-weight="700" fill="#000000" font-family="Segoe UI, Helvetica Neue, Arial, sans-serif">xsd:string</text><polygon points="3094,1280 3280,1280 3266,1340 3080,1340" fill="#b6e6b6" stroke="#000000" stroke-width="1.5"/><text x="3180" y="1310" text-anchor="middle" dominant-baseline="middle" font-size="20" font-weight="700" fill="#000000" font-family="Segoe UI, Helvetica Neue, Arial, sans-serif">xsd:string</text><polygon points="2972,1785 3158,1785 3144,1845 2958,1845" fill="#b6e6b6" stroke="#000000" stroke-width="1.5"/><text x="3058" y="1815" text-anchor="middle" dominant-baseline="middle" font-size="20" font-weight="700" fill="#000000" font-family="Segoe UI, Helvetica Neue, Arial, sans-serif">xsd:string</text><polygon points="2844,2080 3030,2080 3016,2140 2830,2140" fill="#b6e6b6" stroke="#000000" stroke-width="1.5"/><text x="2930" y="2110" text-anchor="middle" dominant-baseline="middle" font-size="20" font-weight="700" fill="#000000" font-family="Segoe UI, Helvetica Neue, Arial, sans-serif">xsd:gYear</text><polygon points="2653,2338 2839,2338 2825,2398 2639,2398" fill="#b6e6b6" stroke="#000000" stroke-width="1.5"/><text x="2739" y="2368" text-anchor="middle" dominant-baseline="middle" font-size="20" font-weight="700" fill="#000000" font-family="Segoe UI, Helvetica Neue, Arial, sans-serif">xsd:string</text><polygon points="2387,2561 2573,2561 2559,2621 2373,2621" fill="#b6e6b6" stroke="#000000" stroke-width="1.5"/><text x="2473" y="2591" text-anchor="middle" dominant-baseline="middle" font-size="20" font-weight="700" fill="#000000" font-family="Segoe UI, Helvetica Neue, Arial, sans-serif">xsd:string</text><polygon points="2100,2704 2286,2704 2272,2764 2086,2764" fill="#b6e6b6" stroke="#000000" stroke-width="1.5"/><text x="2186" y="2734" text-anchor="middle" dominant-baseline="middle" font-size="20" font-weight="700" fill="#000000" font-family="Segoe UI, Helvetica Neue, Arial, sans-serif">xsd:gYear</text><polygon points="1787,2779 1973,2779 1959,2839 1773,2839" fill="#b6e6b6" stroke="#000000" stroke-width="1.5"/><text x="1873" y="2809" text-anchor="middle" dominant-baseline="middle" font-size="20" font-weight="700" fill="#000000" font-family="Segoe UI, Helvetica Neue, Arial, sans-serif">xsd:string</text><polygon points="1441,2779 1627,2779 1613,2839 1427,2839" fill="#b6e6b6" stroke="#000000" stroke-width="1.5"/><text x="1527" y="2809" text-anchor="middle" dominant-baseline="middle" font-size="20" font-weight="700" fill="#000000" font-family="Segoe UI, Helvetica Neue, Arial, sans-serif">xsd:string</text><polygon points="1231,2737 1417,2737 1403,2797 1217,2797" fill="#b6e6b6" stroke="#000000" stroke-width="1.5"/><text x="1317" y="2767" text-anchor="middle" dominant-baseline="middle" font-size="20" font-weight="700" fill="#000000" font-family="Segoe UI, Helvetica Neue, Arial, sans-serif">xsd:string</text><polygon points="1029,2664 1215,2664 1201,2724 1015,2724" fill="#b6e6b6" stroke="#000000" stroke-width="1.5"/><text x="1115" y="2694" text-anchor="middle" dominant-baseline="middle" font-size="20" font-weight="700" fill="#000000" font-family="Segoe UI, Helvetica Neue, Arial, sans-serif">xsd:string</text><polygon points="841,2561 1027,2561 1013,2621 827,2621" fill="#b6e6b6" stroke="#000000" stroke-width="1.5"/><text x="927" y="2591" text-anchor="middle" dominant-baseline="middle" font-size="20" font-weight="700" fill="#000000" font-family="Segoe UI, Helvetica Neue, Arial, sans-serif">xsd:string</text><polygon points="575,2338 761,2338 747,2398 561,2398" fill="#b6e6b6" stroke="#000000" stroke-width="1.5"/><text x="661" y="2368" text-anchor="middle" dominant-baseline="middle" font-size="20" font-weight="700" fill="#000000" font-family="Segoe UI, Helvetica Neue, Arial, sans-serif">xsd:string</text><polygon points="364,2050 550,2050 536,2110 350,2110" fill="#b6e6b6" stroke="#000000" stroke-width="1.5"/><text x="450" y="2080" text-anchor="middle" dominant-baseline="middle" font-size="20" font-weight="700" fill="#000000" font-family="Segoe UI, Helvetica Neue, Arial, sans-serif">xsd:string</text><polygon points="256,1785 442,1785 428,1845 242,1845" fill="#b6e6b6" stroke="#000000" stroke-width="1.5"/><text x="342" y="1815" text-anchor="middle" dominant-baseline="middle" font-size="20" font-weight="700" fill="#000000" font-family="Segoe UI, Helvetica Neue, Arial, sans-serif">xsd:string</text><polygon points="196,1444 382,1444 368,1504 182,1504" fill="#b6e6b6" stroke="#000000" stroke-width="1.5"/><text x="282" y="1474" text-anchor="middle" dominant-baseline="middle" font-size="20" font-weight="700" fill="#000000" font-family="Segoe UI, Helvetica Neue, Arial, sans-serif">xsd:string</text><polygon points="201,1230 387,1230 373,1290 187,1290" fill="#b6e6b6" stroke="#000000" stroke-width="1.5"/><text x="287" y="1260" text-anchor="middle" dominant-baseline="middle" font-size="20" font-weight="700" fill="#000000" font-family="Segoe UI, Helvetica Neue, Arial, sans-serif">xsd:gYear</text><polygon points="238,1018 424,1018 410,1078 224,1078" fill="#b6e6b6" stroke="#000000" stroke-width="1.5"/><text x="324" y="1048" text-anchor="middle" dominant-baseline="middle" font-size="20" font-weight="700" fill="#000000" font-family="Segoe UI, Helvetica Neue, Arial, sans-serif">xsd:string</text><polygon points="307,815 493,815 479,875 293,875" fill="#b6e6b6" stroke="#000000" stroke-width="1.5"/><text x="393" y="845" text-anchor="middle" dominant-baseline="middle" font-size="20" font-weight="700" fill="#000000" font-family="Segoe UI, Helvetica Neue, Arial, sans-serif">xsd:string</text><polygon points="480,515 666,515 652,575 466,575" fill="#b6e6b6" stroke="#000000" stroke-width="1.5"/><text x="566" y="545" text-anchor="middle" dominant-baseline="middle" font-size="20" font-weight="700" fill="#000000" font-family="Segoe UI, Helvetica Neue, Arial, sans-serif">xsd:string</text><polygon points="701,282 887,282 873,342 687,342" fill="#b6e6b6" stroke="#000000" stroke-width="1.5"/><text x="787" y="312" text-anchor="middle" dominant-baseline="middle" font-size="20" font-weight="700" fill="#000000" font-family="Segoe UI, Helvetica Neue, Arial, sans-serif">xsd:gYear</text><polygon points="969,105 1155,105 1141,165 955,165" fill="#b6e6b6" stroke="#000000" stroke-width="1.5"/><text x="1055" y="135" text-anchor="middle" dominant-baseline="middle" font-size="20" font-weight="700" fill="#000000" font-family="Segoe UI, Helvetica Neue, Arial, sans-serif">xsd:string</text><rect x="1152" y="247" width="300" height="110" rx="8" fill="#dae8fc" stroke="#6c8ebf" stroke-width="2"/><text x="1152" y="280" text-anchor="start" dominant-baseline="middle" font-size="18" font-weight="400" fill="#1a3f8c" font-family="Segoe UI, Helvetica Neue, Arial, sans-serif">&lt;div&gt;Self references:&lt;/div&gt;ninja:isVassalOf</text><text x="1152" y="302" text-anchor="start" dominant-baseline="middle" font-size="18" font-weight="400" fill="#1a3f8c" font-family="Segoe UI, Helvetica Neue, Arial, sans-serif">rdfs:subPropertyOf&lt;div&gt;</text><text x="1152" y="324" text-anchor="start" dominant-baseline="middle" font-size="18" font-weight="400" fill="#1a3f8c" font-family="Segoe UI, Helvetica Neue, Arial, sans-serif">&lt;/div&gt;</text><rect x="-420" y="-420" width="420" height="330" rx="8" fill="none" stroke="#333333" stroke-width="2"/><text x="-400" y="-385" text-anchor="start" dominant-baseline="middle" font-size="22" font-weight="700" fill="#1a1a1a" font-family="Segoe UI, Helvetica Neue, Arial, sans-serif">Conceptual Model (Graffoo notation)</text><rect x="-400" y="-350" width="180" height="55" rx="8" fill="#ffff99" stroke="#000000" stroke-width="2"/><text x="-310" y="-322" text-anchor="middle" dominant-baseline="middle" font-size="30" font-weight="700" fill="#000000" font-family="Segoe UI, Helvetica Neue, Arial, sans-serif">Class</text><polygon points="-386,-280 -220,-280 -234,-230 -400,-230" fill="#b6e6b6" stroke="#000000" stroke-width="1.5"/><text x="-310" y="-255" text-anchor="middle" dominant-baseline="middle" font-size="20" font-weight="700" fill="#000000" font-family="Segoe UI, Helvetica Neue, Arial, sans-serif">Datatype</text><text x="-400" y="-200" text-anchor="start" dominant-baseline="middle" font-size="22" font-weight="700" fill="#1a1a1a" font-family="Segoe UI, Helvetica Neue, Arial, sans-serif">&amp;#8212; Object property (blue)</text><text x="-400" y="-160" text-anchor="start" dominant-baseline="middle" font-size="22" font-weight="700" fill="#1a1a1a" font-family="Segoe UI, Helvetica Neue, Arial, sans-serif">&amp;#8212; Data property (green)</text><text x="-400" y="-120" text-anchor="start" dominant-baseline="middle" font-size="22" font-weight="700" fill="#1a1a1a" font-family="Segoe UI, Helvetica Neue, Arial, sans-serif">&amp;#8212; Class relation (black)</text></svg>